<svg xmlns="http://www.w3.org/2000/svg" width="512" height="512"><style><![CDATA[.A{stroke-linecap:round}.B{fill:#fff}.C{fill:none}.D{stroke:#000}.D{stroke-width:2}.F{stroke-linejoin:round}.H{stroke-miterlimit:10}]]></style><g class="D D"><circle cx="272.667" cy="378.13" r="120.472" class="B"/><circle stroke-dasharray="1.9957,1.9957" cx="272.667" cy="378.13" r="114.34" class="C"/></g><g class="B"><path d="M341.673 117.56l-14.415-5.45-15.16-7.654-7.124-4.648.338-10.835 4.752-9.934 6.723-11.8 6.537-9.35 4.385-5.45 2.205-2.875-10.673-8.766-10.023-4.686-6.17-5.354-1.707-5.113 2.19-9.964 3.877-4.343 14.955-3.06 14.117-.574 7.03 1.8 12.65 2.977 12.04 5.888 14.423 8.212 8.692 6.315 5.35 7.133 7.388 7.95 8.333 5.602 12.036 5.027 11.402 2.195 8.21 2.74 14.028 3.274 9.535 2.897 17.55 4.74 12.494 4.784 5.794 3.28 3.138 3.04 1.643 3.518-.74 1.773-7.267 1.252-6.363 2.48-3.87 2.67-.95 6.313.893 4.008s-.87 5.09-.778 5.346-.12 3.592-.12 3.592l-3.375 3.606-3.973 3.33s-2.53 3.226-2.7 3.56-1.95 4.193-2.084 4.503l-1.807 4.307-4.866 8.152-3.773 2.995-4.937 2.376-9.076-1.394-8.028-4.805-11.054-7.505-3.706-1.47-10.21-5.9-7.565-1.56-7.505-6.125-3.403-4.335-6.523-3.283-13.743-2.323-5.83-.018-5.54 3.585-9.7 3.87-4.737 2.94c-.003 0-8.792-1.803-13.213-3.474z"/><path d="M328.094 124.62s-40.92 28.663-45.117 32.825-26.473 18.6-26.885 19.715 30.033 16.083 35.73 19.412l43.655 26.092-4.123-66.037c.517-5.232-3.26-32.007-3.26-32.007zm121.638-2.632c.104-1.757 4.314-7.957 8.05-8.945s17.566 1.127 8.47 8.074c-9.1 6.942-16.682 3.72-16.518.87zm-246.055-14.466s6.136-.363 9.948 3.162 3.25 7.917 1.9 9.12-7.333 2.46-9.52-.576-5.637-8.692-2.326-11.705zm54.093 134.23s-8.688 3.158-12.626 5.872-6.2 10.897-1.945 10.986 9.4-1.283 12.462-6.02 2.745-7.714 2.1-10.837zm65.497-8.348s-4.556 6.24-3.823 11.246 2.54 9.33 5.52 6.02 7.586-8.746 6.3-11.997-5.127-7.47-8.008-5.268z" class="D D F H"/></g><g class="C D D F H"><path d="M327.172 124.67s-28.28 2.596-32.625 3.93-32.074 5.004-32.074 5.004l-23.268-7.487-22.535-7.13m111.978 5.603s29.072 8.4 35.727 11.993 31.7 11.894 32.5 11.85 21.47-11.702 25.307-13.64 25.45-10.962 25.45-10.962m-168.635 65.993s-17.844 11.837-21.45 15.027-17.2 11.477-17.2 11.477 6.053 10.087 8.895 13.096 8.672 9.956 8.672 9.956m45.154-33.145s-2.5 3.6-5.047 8.94-9.585 15.65-9.585 15.65 10.937 1.003 15.98.893 16.47 1.287 16.47 1.287m7.18-180.95s-4.773 5.294-7.52 10.016-11.95 18.618-13.185 22.15-3.94 12.042-1.653 16.494S329.7 113.02 329.7 113.02m24.574 8.477s15.472-5.826 18.775-8.938 10.674-12.967 10.977-19.135-1.16-22.02-1.16-22.02m-53.834-.79s1.522 1.814 2.08 3.52 2.54 3.336 2.54 3.336 1.195-7.32 6.634-5.872 5.114 7.304 5.114 7.304m7.348 1.657s5.623-6.918 8.267-4.693 1.632 10.008 1.632 10.008 4.887-.102 7.082-.374 6.715-1.302 6.715-1.302" class="A"/><path d="M331.785 92.87s.932 2.788 3.162 3.144 4.862-3.567 4.862-3.567-.72 4.296.23 4.403 3.188-2.375 3.188-2.375-.164 5.858 2.5 5.552 4.876-.256 4.876-.256-10.187 10.154-17.16 6.58-1.657-13.48-1.657-13.48z"/><path d="M384.63 54.716s8.892 4.318 5.53 9.738-18.58 4.855-26.354 2.986-26.36-12.742-33.038-18.315-21.8-11.614-26.896-17.273-2.898-20.362 8.202-21.632 26.607-5.506 41.314 1.012 33.476 16.697 39.52 23.216 9.034 15.708 23.666 20.86 54.514 13.557 65.902 17.722c0 0 17.24 4.903 20.96 9.493s7.594 4.615 5.367 7.8-14.757 1.12-17.98 7 .64 12.164-.914 17.26-7.94 7.12-10.55 11.716-6.953 17.015-8.578 18.697-6.324 5.577-12.523 4.763-16.934-7.768-18.598-9.048-9.646-5.645-9.646-5.645m-8.914-5s-9.1-2.024-11.484-3.838-8.7-9.343-12.117-11.442-21.404-3.884-21.404-3.884m-36.5-67.484c1.7.023 13.74 5.53 19.516 6.998s13.864 3.55 14.8 2.02-2.092-5.08-2.092-5.08m29.945 49.082l24.26 10.46m19.83-16.547c.516.427 12.526 3.443 15.64 6.242s7.87 6.65 7.87 6.65m-49.993-33.765c2.625 3.217 21.16 6.877 28.08 9.507 5.005 1.9 20.75 2.2 22.663 3.932l8.387 7.734" class="A"/></g><path d="M75.78 210.2c-1.284 1.778-10.976 7.2-10.976 7.2l-16.645 6.238-14.29-4.36-7.928-6.303-7.896-12.036-5.3-12.498-1.27-5.207-8.717 8.963.91-10.492L4.8 166.64c.103.064 3.052-7.732 3.18-8.09s2.842-6.356 2.646-6.865 4.396-8.934 4.386-9.24 5.44-7.017 5.488-7.327 10.076-8.756 10.076-8.756l8.134-6.025 8.874-2.77 8.63-.23c.228.018 3.404-3.16 4.407-2.98s5.872-1.754 5.872-1.754l.64 2.913-.754 3.923-4.083 4.894-5.083 4.158-4.88 5.157-4.165 5.545-5.694 5.997-2.724 2.106 5.26 1.56 4.133.868 7.786 1.764 8.205 2.11 3.728 2.16 8.095 6.616 3.62 5.125 3.24 5.997 3.055 10.68.87 5.733s-2.03 8.294-4.688 12.438-7.275 7.858-7.275 7.858z" class="B"/><g class="D D F H"><path d="M53.375 334.087l-10.11-47.332 18.398-45.583" class="A C"/><path d="M53 334.464s-6.736 7.754-3.485 12.278 10.83 2.6 12.708-5.922-5-9.77-9.223-6.356zm8.635-94.067s18.602-17.502 25.587-28.625l21.265-33.362s-4.1 39.28-.612 56.185 5.688 30.815 5.688 30.815-22.994-8.486-28.244-11.688c-5.25-3.196-23.684-13.325-23.684-13.325z" class="B"/><path d="M114.33 266.065s25.313 8.963 32.018 9.998 17.044 1.486 17.044 1.486-12.346 26.316-14.825 35.8-15.955 38.686-15.955 38.686" class="A C"/><path d="M131.413 356.146c-.207 1.124 13.135 14.22 15.34 13.704s5.467-8.458-1.21-13.23-13.687-2.932-14.13-.474z" class="B"/><path d="M114.287 264.443s27.06-10.69 32.654-14.372 26.042-15.902 26.042-15.902 24.904 9.518 32.142 13.936 27.962 13.135 27.962 13.135" class="A C"/><path d="M234.098 260.756s3.187-6.46 2.236-9.967-4.402-7.11-5.7-6.732-4.467 3.344-2.735 8.458 4.6 7.942 6.2 8.24z" class="B"/><path d="M108.877 177.714s32.778-14 37.448-15.347l13.854-4.172s12.722-12.335 17.424-18.08 13.936-12.32 13.936-12.32" class="A C"/><path d="M193.687 128.6s6.914 3.15 9.61-3.902.406-13.064-.978-13.786-8.166 1.13-10.425 7.416-.134 9.713 1.794 10.272z" class="B"/><g class="C"><g class="A"><path d="M67.335 216.375s-16.83 6.868-18.793 7.224S34.4 222.3 25.94 212.975s-14.394-27.095-14.447-29.062M48.5 148.76s14.863-.398 27.934 11.392 12.185 29.73 12.185 29.73"/><path d="M35.325 189.497s-4.236-5.054-.245-9.1 10.734-1.65 10.734-1.65m3.3-7.073s-.854-3.468 2.387-7.2 9.43.658 9.43.658"/></g><path d="M54.154 200.978s6.182-1.686 8.782-6.612 3.848-9.212 3.848-9.212 8.874 12.36 2.725 18.598c-6.154 6.24-15.547 1.48-15.355-2.774z"/><g class="A"><path d="M2.742 191.588l32.5-39.284c5.428-6.975 19.452-21.774 21.674-23.81s8.9-7.227 9.468-9.063 2.326-5.523.68-6.697-9.99 4.67-9.99 4.67-9.75-1.103-14.376 1.757-14.134 4.933-26.98 23.954S4.28 181.22 4.28 181.22"/><path d="M11.292 176.48l-1.434-8.03-1.156-9.052m11.422 6.824l-2.354-8.437c-1.163-3.763-1.504-10.738-1.504-10.738m11.18 9.34s-2.564-5.02-3.12-8.646-.292-10.923-.292-10.923m10.435 9.738c-.35-1.66-2.742-5.997-2.354-8.437s-.526-8.333-.238-8.95"/><path d="M44.668 136.26c-.647-1.348-2.746-5.993-2.632-7.366s-.178-6.37-.178-6.37m15.305 4.293c-.043-1.668-1.5-6.196-.946-6.957M6.285 171c1.52-.042 5.587-1.212 8.013-1.277s5.324.388 5.324.388m-9.767-7.406c1.355-.5 6.118-2.622 8.646-2.447l7.53.893"/><path d="M12.996 149.715c2.575-.374 7.686-2.184 11.332-1.974s10.883-.5 12.16.487m-15.905-10.025c2.1-1.195 8.703-1.07 12.52-1.63s13.434-1.647 15.034-1.163m-15.995-10.232c2.653-.338 9.813.687 12.996.448s10.22 1.238 11.122 1.213"/></g></g></g><path d="M281.353 460.054c-.865-.593-3.447 1.067-4.9 2.108s-3.08 1.25-3.92.8-1.326-1.65-1.296-1.854 1.5-.066 3.552-2.102 2.747-5.7.377-7.168-4.654-.52-6.504 1.528-2.46 6.12-1.646 9.3 3.7 6.087 6.654 5.808 5.124-1.35 6.758-4.08 1.784-3.758.913-4.35zm-10.16-4.22c.446-1.007 1.383-2.035 2.22-1.604s.72 1.227-.2 2.75-2.35 1.935-2.468 1.783-.004-1.92.44-2.93zm15.14 3.816c.915-.37 2.604.375 2.877 1.32s-.53 2.25-1.47 2.594-2.325-.03-2.722-1.248.4-2.295 1.316-2.667zm25.804-6.274c.3.947 1.173 2 2.416 1.512s1.8-1.612 1.464-3.026-1.23-1.55-2.36-1.18-1.83 1.746-1.52 2.695zm-22.49-18.526c.986-.4 1.993-.512 2.916.095s2.34 1.268 3.622 4.14c2.357 5.276 3.866 14.376 3.815 15.894s-.001 3.483 1.23 3.92 2.412.006 3.637-1.598 5.974-9.055 6.9-20.718c.43-5.427.1-9.3-.728-11.882-.964-2.96-2.232-4.204-3.07-4.683s-2.156.477-1.846 1.376 1.28 3.376 1.814 5.362.548 9.354-1.026 15.335-2.7 8.1-3.074 8.17-.077-7.28-3.67-13.564-8.285-6.623-10.503-5.266-1.003 3.8-.02 3.42zm-54.736-23.662l-1.932 1.444-1.703-6.052c-2.404-8.3-5.012-12.727-6.234-15.433-1.215-2.704-4.4-.883-4.042 1.098.317 1.824-2.645 13.816-3.698 18.84-2.55.46-4.377 1.872-4.894 3.288-.335.917-.517 3.03.24 4.407.436.797 1.118 1.502 2.03 2.1-.658 1.93-1.4 3.862-2.192 5.46-1.987 4-4.335 5.426-5.123 5.63-1.688.438-1.692-2.467-3.085-2.095s-.87 2.226-.555 3.32 1.75 2.83 3.77 2.734 4.013-1.683 4.873-2.712c.64-.764 3.56-4.444 5.88-10.786 1 .28 2.097.503 3.3.665 2.178.297 4.796-.484 7.107-1.674.566.5 1.272 1.147 1.878 1.82l.778 2.866c.302 1 1.28 2.002 2.223 2.2 1.57.3 3.207-.962 2.623-3.32l-2.002-7.917c1.6-2 2.118-3.748 2.27-4.17.378-1.018-.693-1.902-1.525-1.708zm-10.472 5.955c-.094.703-2.728.84-4.73.536.186-.727.357-1.478.515-2.252 1.882.463 4.3 1.17 4.216 1.716zm2.817-5.924l.764 2.596c-1.003-.506-2.495-1.187-4.696-2.048a12.71 12.71 0 0 0-2.198-.64l.524-2.608 1.774-9.063c.17-.055 1.785 5.022 3.832 11.762zm23.623-4.526c.17 1.3-.314 2.246-1.303 1.895s-3.996.43-2.92 5.413c.537 2.492 2.172 3.455 3.65 1.95s1.714-3.997 1.567-5.594l-.552-4.98c-.207-2.322 3.164-3.1 3.87-1.236s1.38 5.333 2.148 6.628 1.502 1.854 2.313 1.964 2.66-1.316 3.165.388-1.065 3.922-3.16 4.997-3.985-1.323-4.285-1.226-1.113 4.227-5.138 5.188-8.244-1.277-8.62-7.186 2.253-8.458 4.37-9.448 4.723-.044 4.895 1.247zm23.84-7.22c1.055.03 2.145-1.335.76-2.716s-3.705-2.193-6.156-.536-5.228 8.432-3.442 13.457 5.784 5.893 9.788 4.64 5.96-6.365 6.153-8.188-1.496-1.605-2.162-.8-3.896 3.387-6.034 3.935-3.604-1.617-3.108-5.144 1.376-4.263 2.088-4.494 2.114-.164 2.114-.164zm11.165-13.205c1.432 3.17 2.22 7.547 2.518 7.848s1.986-4.6 5.228-5.066 5.155 2.134 5.782 3.673 1.427 4.147 1.684 5.634.737 2.874.994 2.9 1.855-.73 2.042 1.377-1.068 3-2.052 3.335c-.493.174-1.87.142-2.978-.798s-1.958-2.8-2.316-4.355l-1.25-5.748c-.485-1.487-1.092-2.374-2.18-1.108s-2.177 3.2-2.438 5.446c-.522 4.515.173 6.506.233 7.907s-2.95 3.116-3.906 1.023-2.103-9.33-3.235-14.034-3.87-11.602-4.527-14.4 1.65-3.132 2.552-1.444a135.64 135.64 0 0 1 3.849 7.809zm37.527 5.773c-.1-.222-.576-.374-1.218-.226-.96.224-2.067.9-2.52 1.22-.755.546-2.144 2.445-4.592 2.816s-4.36-1.38-4.34-1.65 3.453-.923 4.747-2.07 3.042-3.52 1.95-6.64-4.143-4.146-7.004-3.244-3.854 4.075-4.063 5.38-1.044 5.15.057 8.155 3.297 4.285 4.5 4.766 3.598 1.302 6.87.372 4.1-2.58 5.188-4.6c1.07-2.02.68-3.722.423-4.276zm-12.752-4.34c.36-1.764 1.908-2.02 2.74-1.768s1.83 1.722.53 3.118-3.42 2-3.618 1.737c.001.001-.012-1.325.35-3.087zm14.247-7.905c.182.938 1.826 5.984 2.678 8.598s1.25 5.225 1.8 6.794 3.927 1.038 3.544-1.205-1.406-10.282.854-13 2.977-2.414 3.282-2.315 2.615 7.647 3.53 9.842 3.38 3.412 5.152 2.733 3.827-3.018 3.666-5.656-2.12-2.15-3.12-1.7-1.663 1.937-2.064 1.768-2.436-6.782-3.232-8.766-2.388-2.662-3.885-2.673-4.13 1.098-5.93 3.528-1.52 3.005-2 3.063-1.148-2.784-2.542-2.78-1.9.817-1.72 1.756zM190.7 349.245c1.17-.38.522-1.915.185-3.1s-2.14-2.743-4.478-2.73-5.162.984-7.6 3.726-3.02 5.42-3.335 7.966 1.43 6.1 5.206 5.88 11.27-1.86 15.696 3.923 2.237 10.272-.312 12.698-7.443 5.765-12.395 4.337-4.958-6.958-4.9-8.427 1.996-4.737 1.07-5.133-3.464 2.523-4.565 5.874-.686 10.44 5.9 12.33 18.768-2.068 22.175-9.813.33-13.818-5.662-18.597-16.723-2.526-17.048-3.217-.12-6.64 4.643-8.392c3.56-1.308 4.236 3.058 5.408 2.675zm19.657 9.38c.77-.28 1.943 1.9 1.937 2.696s.96 11.586 3.862 10.704 1.006-9.264 1.206-9.988 1.986-1.855 2.945-.636 1.5 4.227 2.16 4.68 3.116 2.043 3.67 1.938 1.016-3.164 1.157-4.22-.706-3.77-1.377-4.226-2.45-1.594-2.454-2.142.516-1.9.876-2.054 2.315-.543 2.912-.775 2.315-1.2 2.632-1.256 1.245-.345 1.196.308-.727 1.633-1.438 2.1-1.277 1.015-1.277 1.015 2.1 1.856 2.62 5.052.133 9.853-3.66 10.687-5.83-1.95-6.415-1.796-1.12 4.328-4.06 5.062-5.55-2.303-6.642-6.922-.854-9.852.15-10.216zm30.24-15.198c1.5-.442 1.676-1.9 1.415-3.172s-1.854-1.846-2.878-1.435-1.475 1.782-1.196 2.872 1.464 2.085 2.66 1.735zm.46 5.806c1.72-.496 2.444.237 2.566 2.218s1.614 7.6 2.016 8.252c.2.344.9 1.126 1.926.942.944-.166 2.24-1.27 2.723-1.48 1.016-.44 2.164.874 1.537 2.162s-1.886 3.883-4.916 4.643-4.574-1.836-4.844-1.75-.996 2.068-2.258 2.443-2.475-.676-2.403-1.373 1.358-2.14 1.572-3.204l.98-6.523c-.064-.764-.618-5.83 1.102-6.33zm15.685-5.65c1.614-.6 3.014.602 3.236.94s.386 1.072.726.96 2.1-3.302 4.928-4.148 3.53.32 4.54 1.313 3.228 10.25 3.43 10.185c.1-.03.447-.718 1.108-1.22.697-.53 1.72-.88 2.3-.827 1.13.106 1.124 2.228.613 4.064-.268.962-1.24 2.022-2.426 2.46-1.078.397-2.355.23-3.065-.035-.48-.18-2.256-1.564-2.922-4.494s-1.978-8.1-2.106-8.187c-.2-.125-2.455.303-3.332 4.5s.258 7.256.248 8.717-.495 2.416-1.712 2.702-2.12-.232-2.44-1.374-.707-3.583-.87-4.54-1.546-5.552-1.784-5.475-1.026 1.283-1.104 3.688-3.002 1.8-3.5-.033-.326-3.717.858-5.937c1.183-2.215 1.66-2.658 3.27-3.258zm43.446.027c-1.228-1.02-4.3 2.792-4.3 2.792s-.594-.977-.913-2.418-1.635-9.246-2.23-10.902-4.095-1.093-4.07 1.665c.05 1.45.45 2.37.9 4.862.655 2.306.35 2.648.316 3.262-.1 2.105-1.356 3.234-2.12 3.434-1.817.466-2.3-2.896-2.44-4.9s.587-3.48 1.224-3.737.784.415 1.364.203.356-2.035-.05-2.6-1.605-1.298-3.293-.623-3.293 3.205-3.675 6.73.4 7.268 2.914 9.292 6.866.192 6.866.192-1.333 1.37-2.685 2.882-3.284 3.213-3.983 4.188c-1.67 2.33-2.315 5.815-1.3 8.676s4.097 5.768 9.295 4.126 6.105-6.18 6.763-9.308-1.766-11.6-1.766-11.6 4.405-5.196 3.174-6.216zm-5.97 15.923c.297 1.598-.096 4.67-1.038 5.45s-2.053 1.04-3.05 1.194-3.384-1.964-2.312-4.03 4.992-7.708 5.313-7.713.8 3.5 1.087 5.1zm9.475-40.18c1.262-.4 2.324-.208 2.842 1.7s-.626 3.27-1.74 3.684-2.755-.576-3.03-1.88.665-3.084 1.926-3.496zm.005 25.718c-.306 1.146 1.54 1.894 2.376 1.096s1.323-2.998 1.52-3.062 1.096.914 2.432 1.575 4.977-.9 6.033-2.364c1.87-2.604 1.18-5.867-.044-5.794s-4.24 3.2-4.53 3.073-.84-2.023-1.434-4.243c-.682-2.547-1.017-4.653-1.888-5.792s-3.8-.405-3.757 1.522l.12 7.047c-.03 2.048-.537 5.85-.83 6.942zm16.928-14.712c.907-.347 1.703-5.023 2.736-4.9s1.378 4.23 1.46 5.093-.133 7.326 1.15 8.203 2.518.603 3.4-.544.207-2.437.6-7.146 2.428-8.218 3.415-7.8c.465.2.23 1.67.394 3.733.185 2.317.767 5.304 1.432 6.537 1.26 2.33 3.756 3.038 6.003 2.205.454-.167 2.188-1.24 2.478-2.8.24-1.295.135-3.088-.243-4.032-.226-.567-.72-.657-.827-.63-.97.24-2.36 2.164-2.825 2.117s-1.188-6.94-1.903-8.75-2.5-3.696-5.593-2.863-4.864 4.576-5.166 4.724-1.148-2.994-3.6-2.215-4.786 3.83-4.76 6.66.97 2.748 1.878 2.405zm15.212-32.514c.226-.727 1.947-2.13 3.68-.177s2.55 4.38 2.27 5.966-1.26 2.767-2.567 2.045-3.608-7.107-3.384-7.834z"/></svg>