<svg xmlns="http://www.w3.org/2000/svg" width="512" height="512"><circle fill="#FFF" stroke="#000" stroke-width="2" stroke-miterlimit="10" cx="272.667" cy="378.13" r="120.472"/><circle fill="none" stroke="#000" stroke-width="2" stroke-miterlimit="10" stroke-dasharray="1.996 1.996" cx="272.667" cy="378.13" r="114.34"/><path fill="#FFF" d="M341.673 117.56l-14.415-5.449-15.159-7.654-7.124-4.648.338-10.835 4.752-9.934 6.723-11.799 6.537-9.349 4.385-5.449 2.205-2.875-10.673-8.766-10.023-4.686-6.171-5.354-1.707-5.113 2.191-9.964 3.877-4.343 14.955-3.059 14.117-.574 7.031 1.801 12.651 2.977 12.039 5.888 14.423 8.212 8.692 6.315 5.349 7.133 7.388 7.951 8.333 5.602 12.036 5.027 11.402 2.195 8.209 2.74 14.028 3.274 9.535 2.897 17.549 4.741 12.494 4.784 5.794 3.279 3.138 3.041 1.643 3.518-.739 1.773-7.267 1.252-6.363 2.479-3.869 2.671-.95 6.313.893 4.008s-.871 5.089-.778 5.346c.089.259-.121 3.592-.121 3.592l-3.375 3.606-3.973 3.329s-2.529 3.226-2.7 3.56c-.171.331-1.949 4.193-2.084 4.503-.132.309-1.807 4.307-1.807 4.307l-4.866 8.152-3.773 2.995-4.937 2.376-9.076-1.394-8.028-4.805-11.054-7.505-3.706-1.469-10.211-5.89-7.565-1.561-7.505-6.125-3.403-4.335-6.523-3.283-13.743-2.323-5.829-.018-5.541 3.585-9.699 3.87-4.737 2.941c-.003 0-8.792-1.803-13.213-3.474z"/><path fill="#FFF" stroke="#000" stroke-width="2" stroke-linecap="round" stroke-linejoin="round" stroke-miterlimit="10" d="M328.094 124.62s-40.92 28.663-45.117 32.825c-4.196 4.165-26.473 18.591-26.885 19.715-.409 1.127 30.033 16.083 35.73 19.412 5.694 3.329 43.655 26.092 43.655 26.092s-4.635-60.801-4.123-66.037c.517-5.232-3.26-32.007-3.26-32.007zM449.732 121.988c.104-1.757 4.314-7.957 8.049-8.945s17.566 1.127 8.469 8.074c-9.099 6.942-16.682 3.719-16.518.871zM203.677 107.522s6.136-.363 9.948 3.162c3.81 3.524 3.251 7.917 1.899 9.119-1.355 1.206-7.333 2.461-9.521-.576s-5.637-8.692-2.326-11.705zM257.771 241.752s-8.688 3.158-12.626 5.872c-3.938 2.718-6.21 10.897-1.945 10.986 4.264.089 9.4-1.283 12.462-6.021 3.062-4.734 2.745-7.714 2.109-10.837zM323.267 233.404s-4.556 6.239-3.823 11.246c.732 5.008 2.54 9.329 5.521 6.019 2.98-3.315 7.586-8.746 6.31-11.997-1.279-3.255-5.127-7.469-8.008-5.268z"/><path fill="none" stroke="#000" stroke-width="2" stroke-linecap="round" stroke-linejoin="round" stroke-miterlimit="10" d="M327.172 124.669s-28.279 2.596-32.625 3.93c-4.347 1.333-32.074 5.004-32.074 5.004s-19.1-6.171-23.268-7.487l-22.535-7.131M328.648 124.591s29.072 8.401 35.727 11.993c6.658 3.592 31.701 11.894 32.49 11.851.786-.039 21.469-11.702 25.307-13.64 3.841-1.938 25.451-10.962 25.451-10.962M278.997 189.824s-17.844 11.837-21.45 15.027c-3.606 3.187-17.211 11.477-17.211 11.477s6.053 10.087 8.895 13.096c2.842 3.005 8.672 9.956 8.672 9.956M303.058 206.235s-2.489 3.6-5.047 8.941c-2.557 5.342-9.585 15.649-9.585 15.649s10.937 1.003 15.98.893c5.039-.11 16.471 1.287 16.471 1.287M328.055 52.054s-4.773 5.294-7.52 10.016c-2.745 4.722-11.95 18.618-13.185 22.151-1.234 3.536-3.94 12.042-1.653 16.494 2.287 4.45 23.993 12.306 23.993 12.306M354.274 121.497s15.472-5.826 18.775-8.938c3.305-3.112 10.674-12.967 10.977-19.135.306-6.167-1.16-22.02-1.16-22.02M329.032 70.615s1.522 1.814 2.081 3.52c.559 1.705 2.539 3.336 2.539 3.336s1.195-7.32 6.634-5.872c5.438 1.449 5.114 7.304 5.114 7.304"/><path fill="none" stroke="#000" stroke-width="2" stroke-linecap="round" stroke-linejoin="round" stroke-miterlimit="10" d="M352.748 80.561s5.623-6.918 8.267-4.693c2.643 2.226 1.632 10.008 1.632 10.008s4.887-.102 7.082-.374c2.19-.272 6.715-1.302 6.715-1.302M331.785 92.869s.932 2.788 3.162 3.144c2.23.355 4.862-3.567 4.862-3.567s-.719 4.296.23 4.403c.95.107 3.188-2.375 3.188-2.375s-.164 5.858 2.5 5.552c2.668-.302 4.876-.256 4.876-.256s-10.187 10.154-17.161 6.58c-6.97-3.576-1.657-13.481-1.657-13.481z"/><path fill="none" stroke="#000" stroke-width="2" stroke-linecap="round" stroke-linejoin="round" stroke-miterlimit="10" d="M384.631 54.716s8.892 4.318 5.53 9.738-18.58 4.855-26.354 2.986c-7.779-1.869-26.359-12.742-33.038-18.315-6.677-5.575-21.811-11.614-26.896-17.273-5.086-5.657-2.898-20.362 8.202-21.632 11.104-1.27 26.607-5.506 41.314 1.012 14.703 6.518 33.476 16.697 39.519 23.216 6.043 6.519 9.034 15.708 23.666 20.861 14.636 5.154 54.514 13.557 65.902 17.722 0 0 17.239 4.903 20.959 9.493 3.717 4.592 7.594 4.615 5.367 7.809-2.223 3.194-14.757 1.121-17.979 6.989-3.222 5.869.641 12.164-.914 17.261-1.554 5.097-7.941 7.121-10.549 11.716-2.606 4.592-6.953 17.015-8.578 18.697-1.629 1.683-6.324 5.577-12.523 4.763-6.196-.811-16.934-7.768-18.598-9.048-1.665-1.277-9.646-5.645-9.646-5.645M421.09 130.065s-9.111-2.024-11.484-3.838c-2.376-1.81-8.699-9.343-12.117-11.442-3.415-2.098-21.404-3.884-21.404-3.884"/><path fill="none" stroke="#000" stroke-width="2" stroke-linecap="round" stroke-linejoin="round" stroke-miterlimit="10" d="M339.585 43.417c1.711.023 13.739 5.529 19.516 6.998s13.864 3.549 14.811 2.019c.945-1.531-2.092-5.079-2.092-5.079M401.764 96.437s18.782 8.241 24.26 10.46M445.855 90.351c.516.427 12.526 3.443 15.639 6.242 3.108 2.799 7.871 6.651 7.871 6.651M419.372 69.477c2.625 3.217 21.159 6.877 28.08 9.507 5.005 1.901 20.75 2.209 22.663 3.932 1.918 1.723 8.387 7.734 8.387 7.734"/><g><path fill="#FFF" d="M75.779 210.201c-1.284 1.778-10.976 7.199-10.976 7.199l-16.645 6.238-14.291-4.36-7.928-6.303-7.896-12.036-5.299-12.498-1.27-5.207-8.717 8.963.911-10.492s1.024-15.134 1.131-15.066c.103.064 3.052-7.732 3.18-8.091.125-.359 2.842-6.356 2.646-6.865-.195-.508 4.396-8.934 4.386-9.24-.007-.306 5.441-7.017 5.488-7.327.05-.306 10.076-8.756 10.076-8.756l8.134-6.025 8.874-2.771s8.401-.249 8.629-.231c.228.018 3.404-3.159 4.407-2.98 1.006.181 5.872-1.754 5.872-1.754l.64 2.913-.754 3.923-4.083 4.894-5.083 4.158-4.88 5.157-4.165 5.545-5.694 5.997-2.724 2.106 5.26 1.561 4.133.868 7.786 1.764 8.205 2.109 3.728 2.159 8.095 6.616 3.621 5.125 3.24 5.997 3.055 10.681.871 5.733s-2.031 8.294-4.688 12.438c-2.658 4.144-7.275 7.858-7.275 7.858z"/><path fill="none" stroke="#000" stroke-width="2" stroke-linecap="round" stroke-linejoin="round" stroke-miterlimit="10" d="M53.375 334.087l-10.111-47.332 18.398-45.583"/><path fill="#FFF" stroke="#000" stroke-width="2" stroke-linecap="round" stroke-linejoin="round" stroke-miterlimit="10" d="M53.009 334.464s-6.736 7.754-3.485 12.278c3.254 4.523 10.83 2.61 12.708-5.922 1.873-8.533-4.991-9.77-9.223-6.356zM61.645 240.397s18.602-17.502 25.587-28.625c6.989-11.118 21.265-33.362 21.265-33.362s-4.101 39.28-.612 56.185c3.493 16.905 5.688 30.815 5.688 30.815s-22.994-8.486-28.244-11.688c-5.25-3.196-23.684-13.325-23.684-13.325z"/><path fill="none" stroke="#000" stroke-width="2" stroke-linecap="round" stroke-linejoin="round" stroke-miterlimit="10" d="M114.33 266.065s25.313 8.963 32.018 9.998c6.708 1.035 17.044 1.486 17.044 1.486s-12.346 26.316-14.825 35.799c-2.476 9.481-15.955 38.686-15.955 38.686"/><path fill="#FFF" stroke="#000" stroke-width="2" stroke-linecap="round" stroke-linejoin="round" stroke-miterlimit="10" d="M131.413 356.146c-.207 1.124 13.135 14.22 15.34 13.704 2.209-.512 5.467-8.458-1.209-13.23-6.677-4.774-13.687-2.932-14.131-.474z"/><path fill="none" stroke="#000" stroke-width="2" stroke-linecap="round" stroke-linejoin="round" stroke-miterlimit="10" d="M114.287 264.443s27.059-10.691 32.654-14.372c5.591-3.682 26.042-15.902 26.042-15.902s24.904 9.518 32.142 13.936c7.234 4.414 27.962 13.135 27.962 13.135"/><path fill="#FFF" stroke="#000" stroke-width="2" stroke-linecap="round" stroke-linejoin="round" stroke-miterlimit="10" d="M234.098 260.756s3.187-6.459 2.236-9.967c-.949-3.503-4.402-7.109-5.701-6.732-1.302.377-4.467 3.344-2.735 8.458 1.732 5.118 4.599 7.942 6.2 8.241z"/><path fill="none" stroke="#000" stroke-width="2" stroke-linecap="round" stroke-linejoin="round" stroke-miterlimit="10" d="M108.877 177.714s32.778-14.01 37.448-15.347c4.667-1.341 13.854-4.172 13.854-4.172s12.722-12.335 17.424-18.079 13.936-12.321 13.936-12.321"/><path fill="#FFF" stroke="#000" stroke-width="2" stroke-linecap="round" stroke-linejoin="round" stroke-miterlimit="10" d="M193.687 128.6s6.914 3.151 9.609-3.902c2.696-7.053.406-13.064-.978-13.786-1.388-.726-8.166 1.131-10.425 7.416-2.261 6.281-.134 9.713 1.794 10.272z"/><path fill="none" stroke="#000" stroke-width="2" stroke-linecap="round" stroke-linejoin="round" stroke-miterlimit="10" d="M67.335 216.375s-16.83 6.868-18.793 7.224c-1.967.355-14.152-1.288-22.603-10.624-8.451-9.336-14.394-27.095-14.447-29.062M48.499 148.759s14.863-.398 27.934 11.392 12.185 29.73 12.185 29.73M35.325 189.497s-4.236-5.054-.245-9.109c3.991-4.051 10.734-1.65 10.734-1.65M49.114 171.664s-.854-3.468 2.387-7.199c3.24-3.731 9.429.658 9.429.658M54.154 200.978s6.182-1.686 8.782-6.612c2.6-4.926 3.848-9.212 3.848-9.212s8.874 12.359 2.725 18.598c-6.154 6.239-15.547 1.48-15.355-2.774zM2.742 191.588s27.066-32.305 32.49-39.284c5.428-6.975 19.452-21.774 21.674-23.809 2.223-2.034 8.91-7.227 9.468-9.063.558-1.835 2.326-5.523.679-6.697-1.65-1.17-9.991 4.67-9.991 4.67s-9.749-1.103-14.376 1.757c-4.627 2.856-14.134 4.933-26.981 23.954-12.85 19.018-11.424 38.103-11.424 38.103"/><path fill="none" stroke="#000" stroke-width="2" stroke-linecap="round" stroke-linejoin="round" stroke-miterlimit="10" d="M11.292 176.479s-.708-3.521-1.434-8.031c-.726-4.51-1.156-9.052-1.156-9.052M20.124 166.222s-1.191-4.67-2.354-8.437c-1.163-3.763-1.504-10.738-1.504-10.738M27.447 156.388s-2.564-5.019-3.119-8.646c-.551-3.631-.292-10.923-.292-10.923M34.471 146.557c-.349-1.661-2.742-5.997-2.354-8.437.391-2.443-.526-8.333-.238-8.949M44.668 136.261c-.647-1.348-2.746-5.993-2.632-7.366.117-1.369-.178-6.37-.178-6.37M57.163 126.817c-.043-1.668-1.501-6.196-.946-6.957"/><path fill="none" stroke="#000" stroke-width="2" stroke-linecap="round" stroke-linejoin="round" stroke-miterlimit="10" d="M6.285 170.999c1.519-.042 5.587-1.212 8.013-1.277 2.426-.064 5.324.388 5.324.388M9.855 162.705c1.355-.491 6.118-2.622 8.646-2.447 2.525.174 7.529.893 7.529.893M12.996 149.715c2.575-.374 7.686-2.184 11.332-1.974 3.649.206 10.883-.491 12.16.487M20.583 138.203c2.091-1.195 8.703-1.071 12.52-1.629 3.816-.559 13.434-1.647 15.034-1.163M32.142 125.178c2.653-.338 9.813.687 12.996.448 3.18-.238 10.219 1.238 11.122 1.213"/></g><g><path d="M258.14 399.899c-.841.305-7.43 3.141-8.396 3.536-1.278-5.542-1.725-12.6-4.588-17.557-1.028-1.782-2.991-.598-3.271 1.475-.998 7.372-5.252 21.25-5.452 21.9-1.502.562-3.087.953-4.876 1.007-2.805.087-2.341 4.042.015 4.577.955.218 1.88.271 2.779.212-1.674 4.013-3.777 7.807-6.439 11.362-2.276 3.036-5.121 5.313-8.407 7.164-3.361 1.893-5.516.719-6.65-2.763-.855-2.627-1.056-5.458-.309-8.123.262-.938.632-1.835 1.041-2.718.812-1.74.854.198 1.416 1.156.382.649 1.5.687 1.587-.222.239-2.486.301-6.163-3.113-6.302-3.214-.132-4.821 3.669-5.697 6.163-2.268 6.464-1.98 18.327 6.748 19.085 10.952.951 18.216-11.316 21.178-18.984.801-2.07 1.212-4.471 1.93-6.537 1.217-.432 2.398-1.017 3.566-1.642.074.044 4.62-2.235 5.137-2.438.805 3.307.653 15.02.669 15.599.079 2.746 4.809 1.409 4.864-1.332.027-1.391-.215-7.989-.39-10.058-.203-2.434-.405-4.601-.852-6.976 1.094-.703 2.193-1.424 3.387-2.121.896-.523 4.311-3.864 4.427-4.087.117-.219.549-1.689-.304-1.376m-12.89 5.984c-.019.008-3.567 1.504-5.315 2.396.062-.206-.185-.249-.067-.71.711-2.794 2.615-9.872 3.224-12.113.006.042 2.061 10.052 2.158 10.427"/><path d="M334.72 399.389c-3.549 2.641-7.429 5.978-11.259 5.55-3.83-.427-7.089-2.417-8.567-5.883-2.431-5.707-.158-13.932.034-19.917.054-1.687-2.297-3.327-3.818-1.873-3.338 3.189-5.681 6.365-8.025 10.061.001-.218.238-3.092.541-6.723.363-4.387.823-9.88 1.075-13.139.176-2.256-2.339-2.811-2.844-.685-.814 3.437-2.258 8.784-2.886 13.92-.241 1.973-.295 4.054-.729 7.562-.433 3.51-3.461 9.509-5.094 11.84-3.356 4.794-7.362 8.011-9.182 6.927-1.818-1.085-1.338-5.992-.677-7.854.519-1.456 1.617-3.438 2.716-3.782 3.699-1.157 1.193-5.97-2.602-3.591-2.449 1.536-5.468 7.381-5.879 11.785-.411 4.403 1.736 5.804 1.243 6.344-1.075 1.179-4.241 1.799-4.823 1.752-.851-.071-1.856-.506-1.806-1.608.05-1.1-.302-6.839-.298-7.601.011-2.395-3.44-2.323-3.915.113-.135.689-.333 1.716-.427 2.462-.933 4.397-5.152 12.569-7.182 11.606-2.031-.965 1.406-9.092 2.598-10.205 1.188-1.112 2.209-.19 3.771-.558.332-.079.623-.356.557-.729-.532-2.99-3.418-3.771-6.6-2.117-3.18 1.656-6.105 7.955-6.201 11.402-.014.495-.229 7.237 4.18 8.021 4.54.806 7.82-3.633 10.148-8.505 1.172 1.585 3.392 2.059 5.109 1.934 1.716-.127 5.848-1.51 7.036-3.857 6.402 2.978 10.69-2.959 13.496-6.431 1.397-1.728 3.884-8.078 3.89-7.988.131 1.74-.104 6.461-.116 8.439-.014 1.979 3.672 1.262 4.231-1.398.309-1.462.353-2.389.396-3.308.343-7.303 3.58-12.542 6.167-15.798-1.141 6.716-1.936 15.062 2.88 19.972 6.837 6.972 19.071 5.962 23.857-4.708.492-1.092-.102-2.096-.995-1.432"/><path d="M367.913 372.786c-1.32.38-1.181 1.74-4.413 2.636-3.231.898-5.933.914-7.581-1.006-1.647-1.922-1.895-5.526-1.331-8.684.451-2.539.975-4.226-1.3-4.475-2.018-.224-3.713.432-6.021 2.363-2.309 1.932-5.15 6.754-5.299 6.936-.021-.278-.088-.901-.117-1.179-.248-2.384-2.46-1.293-2.745.796-.285 2.086-.196 2.551-.482 5.417-1.064 1.989-7.489 10.123-8.514 11.162-1.403 1.423-5.15 5.008-6.715 4.45-.989-.35-.859-1.753-1.014-3.129 1.896-.678 3.944-3.363 4.172-4.06.282-.828 3.16-7.19.191-10.705-1.889-2.233-4.941-.36-6.309 1.07-2.471 2.587-3.841 7.65-4.116 11.079-.249 3.12.441 7.517 3.17 9.522 4.96 3.647 10.232-1.562 13.327-5.177 2.23-2.604 5.401-9.492 5.718-10.123.053.317-.067 5.761-.135 6.86-.246 4.116 5.702 2.376 5.08-.943.144-1.94-.322-8.738 1.346-12.407 1.669-3.668 5.503-8.108 6.083-7.874-2.725 5.651-1.191 11.363.236 12.916 1.427 1.551 4.439 3.557 10.882 1.842 6.441-1.718 7.16-4.813 7.289-5.114l.028-.07c.537-1.247-.316-2.844-1.43-2.103m-43.894 4.26c1.037-1.238-.313 3.073-.396 3.328-.454.881-1.024 2.279-1.735 2.914.161-.972.286-1.895.491-2.779.284-1.222.725-2.369 1.64-3.463"/><g><path d="M279.043 453.043c-1.493 1.364-3.902 3.217-5.303 3.731-.611.224-1.449.588-1.9.309-.578-.355-.693-1.437-.731-1.687.649-.319 1.628-1.124 2.514-2.313.885-1.188 1.605-4.724.851-6.207-.72-1.414-2.399-1.422-3.468-.799-1.52.888-2.555 2.749-2.922 4.423-.674 3.074-1.274 10.395 3.617 10.274 2.219-.055 4.114-1.637 5.798-3.317 1.188-1.184 2.252-2.405 2.786-3.799.327-.855-.555-1.244-1.242-.615m-7.599-3.032c.299-.813.812-1.84 1.063-1.843.25-.005.409 1.023-.039 2.472-.449 1.45-1.322 2.236-1.599 2.168-.276-.069.277-1.987.575-2.797M285.479 452.195c-.371-.102-.179-.462-.986-.118a1.266 1.266 0 00-.513 1.969c.51.657 1.222.822 1.777.669.556-.154.82-1.259.709-1.651-.246-.871-.619-.766-.987-.869M308.383 419.105c-1.449.412-8.357 4.757-11.785 10.091-3.426 5.335-3.994 12.609-4.033 13.029-1.118-3.489-2.586-6.548-4.458-9.721-.921-1.562-4.424-4.778-6.947-2.281-2.525 2.494-1.885 4.687-1.565 5.412.146.325.737.302.739-.103.007-.54-.442-2.507 1.844-3.702 2.289-1.194 8.191 11.211 9.567 18.966.313 1.754 3.279 1.433 3.604-.001.558-2.48.171-5.167.131-7.696-.046-2.749.225-5.496 1.982-10.861 1.761-5.365 10.363-11.503 11.361-12.297.579-.457.593-1.127-.44-.836M300.62 445.416c-.286-.135-.658-.209-.971-.131a1.894 1.894 0 00-.722.319c-.164.111-.257.271-.375.416-.389.477-.289 1.153.097 1.577.09.244.241.47.457.648.681.562 1.717.385 2.252-.275.696-.854.175-2.124-.738-2.554"/></g><g><path d="M194.979 352.36c-4.16-1.689-9.625.181-12.791 3.103-5.19 4.792-12.027 19.292-.045 20.788 5.384.671 12.322-.956 17.208 2.41 4.546 3.13 5.049 7.758.974 11.746-3.246 3.176-8.592 5.712-13.457 6.191-4.864.479-13.973-2.184-11.891-8.602.848-2.61-1.61-2.383-3.2.614-.625 1.178-1.106 5.777 1.614 8.943 2.722 3.167 8.424 4.831 15.191 4.396 8.211-.529 17.932-4.693 19.842-13.397 1.033-4.709-1.469-10.858-4.653-14.017-3.943-3.911-10.627-4.519-15.985-4.402-2.496.055-4.955 1.338-5.658-1.829-.603-2.704 1.754-6.393 3.256-8.33 2.015-2.602 4.293-3.747 7.586-3.546 2.61.159 2.596 3.538 4.976 3.973.121.024.244-.041.317-.134 2.143-2.674-.583-6.811-3.284-7.907M259.182 367.317c-.508.048-2.789 5.019-6.627 3.479-1.348-.539-2.429-2.288-2.405-5.155.021-2.69-.633-4.572-.609-4.664.764-2.891-2.342-4.836-3.266-1.858-.491 3.348-2.386 5.559-4.367 7.429-.452.424-2.481 1.637-3.738 2.183-.06-1.769-.371-3.5-1.275-4.545-4.8-5.533-8.212 6.022-2.705 9.289.049 2.153-.03 4.133-2.387 4.948-1.647.568-3.204-1.271-3.792-3.586-.589-2.316-.167-4.948-.833-6.703-.769-2.026-3.688-1.418-4.007.556a20.385 20.385 0 00-.152 4.99c-.248 1.344.082 2.593-.562 4.321-1.141 3.057-3.531 6.512-4.73 6.782-1.878.425-1.755-4.445-1.942-5.534-.405-2.351-.176-5.452.218-7.065.394-1.615-2.136-2.737-3.316-.878-2.439 3.84-3.148 19.695 4.641 18.461 4.107-.653 6.344-3.928 8.229-8.219 1.68 1.555 5.011 2.767 8.294 1.243 3.513-1.629 4.024-4.931 4.166-8.465 2.582-.349 5.168-2.653 7.31-4.771.418 1.59 1.215 3.057 2.567 4.271 1.407 1.259 3.905 1.889 7.72.186 3.993-1.784 4.926-5.334 4.921-5.334.055-.696-.483-1.442-1.353-1.361M251.354 340.988c-1.435-.229-3.435.175-3.949 1.178-.494.961-.139 1.949-.19 2.033-.108.172-2.674.879-2.998 3.236-.323 2.355.121 3.041.941 4.203 1.684 2.387 5.161.655 6.864-1.094 1.666-1.709 2.576-3.829 2.519-6.246-.046-1.864-1.753-3.079-3.187-3.31m-.894 5.955c-.545.855-1.751 2.105-2.155 1.62-.401-.484-.572-1.734-.095-2.808s.983-1.902 1.875-1.549c.893.355.921 1.879.375 2.737M298.646 350.078c-1.124 1.433-1.243.926-2.164 2.032-.029-1.052-.419-2.031-.444-3.084-.025-1.025-.88-5.648-1.108-6.815-.484-2.481-.933-2.977-3.086-4.061-1.058-.532-2.572-.387-3.457 0-4.145 1.657-5.704 7.572-6.269 9.402s-.21 6.917 2.482 8.677c2.384 1.56 5.287.028 7.037-1.871-.004.51.509 2.167-.108 3.813-.682 1.816-2.522 3.643-2.982 4.454-2.264 3.998-4.972 7.854-6.84 12.055-1.279 2.875-2.557 6.009-1.676 9.187.849 3.063 4.614 4.959 7.611 3.656 6.878-2.991 8.858-17.078 9.145-20.905.287-3.828.532-6.652.441-9.363 1.59-2.656 2.576-5.638 2.872-6.807.295-1.168-.354-1.774-1.454-.37m-10.8.889c-.405-1.772-.24-3.741.3-5.629a16.176 16.176 0 012.299-4.813c.124.178.097 4.294-.177 6.262-.275 1.969-2.309 4.368-2.422 4.18m-.553 30.063c-2.406 3.594-2.391-.199-2.08-2.248.384-2.541 1.689-4.688 2.932-6.883.979-1.731 2.417-4.277 3.391-6.013-.112 5.076-1.19 10.587-4.243 15.144"/><path d="M342.835 332.124c-3.36 1.698-5.463 4.89-9.221 5.632-1.173.231-2.299.019-2.834-1.108-1.175-2.476-.527-9.382-.295-11.367.21-1.785-1.144-3.287-2.472-3.292-3.998-.022-8.434 7.085-9.234 9.573-.154-.911-.461-1.541-.754-2.46-.354-1.105-1.871-.664-2.025.288l-.021-.004c-.08.614-.965 7.434-1.411 8.979-.743 2.573-2.111 5.264-3.769 7.334-1.13 1.414-2.534 1.93-3.462 1.674-.934-.258-1.99-1.769-2.582-3.376-.594-1.608-.272-7.675-.21-8.509.174-2.266-2.901-3.381-3.705-1.071-.305.874-.83 2.95-1.014 4.989-.146 1.645.182 3.709.102 5.084-.062 1.083-.514 1.597-.711 2.113-.491 1.292-1.946 4.682-2.354 4.907-.407.223-1.395 1.461-1.722 1.939-.973 1.417-.104-1.031-.521.354-.568 1.888-1.735 1.258-1.5 3.587.199 1.959 3.36.315 4.637-.743 2.334-1.933 3.648-3.666 4.486-6.354 1.79 2.282 4.17 2.654 7.271 1.384 1.869-.767 3.01-2.708 4.354-4.592.649 1.927 4.464 1.86 5.104-.488 1.003-3.662.579-6.149 1.879-10.865 1.3-4.714 3.573-7.525 4.726-8.941 1.062-.82-1.067 5.989-.283 10.08.785 4.091 4.543 5.841 7.074 5.362 2.533-.479 7.516-3.429 8.655-4.843 1.14-1.416 2.255-3.004 3.033-3.998.685-.877-.185-1.793-1.221-1.268M307.735 320.84c-.87-1.434-2.238-2.554-3.899-2.298-.97.147-1.517.646-2.071 1.402-.04.007-1.027-.539-1.783.442-.849 1.102-1.49 4.031-1.224 5.278.239 1.104.678 3.094 2.84 3.421 2.162.328 4.339-.979 5.179-2.469 1.076-1.91 2.187-3.75.958-5.776m-5.117 4.558c-.571-.2-.504-3.188.07-3.852.575-.664 1.476-.191 1.88.526.403.716-1.382 3.527-1.95 3.326M334.646 298.301c-.907-1.412-3.512-.333-3.09 1.313.466 1.818.383 3.277.192 5.148-.103 1.003-.34 4.715-.096 5.604.236.859 1.824 1.421 2.438.453.575-.908.798-1.714 1.605-4.562.809-2.847.081-6.197-1.049-7.956"/><path d="M254.737 373.984c1.869-.767 3.58-1.156 4.924-3.04.65 1.927 4.463 1.86 5.105-.486 1.002-3.666.578-6.153 1.878-10.868 1.301-4.714 3.573-7.524 4.726-8.939 1.063-.821-1.066 5.988-.283 10.079.786 4.091 4.544 5.842 7.075 5.363s7.515-3.429 8.653-4.844c1.14-1.414 6.352-6.923 7.129-7.919.685-.877-.573-1.739-1.61-1.213-3.358 1.698-9.17 8.755-12.926 9.498-1.175.231-2.301.018-2.833-1.107-1.176-2.477-.528-9.383-.298-11.366.211-1.787-1.144-3.288-2.47-3.295-4-.02-8.433 7.087-9.234 9.576-.154-.912-.462-1.542-.756-2.461-.353-1.105-1.87-.666-2.026.289l-.019-.006c-.08.615-.966 7.434-1.412 8.979-.742 2.572-2.111 5.264-3.769 7.335-1.13 1.413-2.532 1.93-3.461 1.673-.935-.258-1.989-1.768-2.584-3.375-.592-1.609-.272-7.676-.208-8.51.173-2.265-2.902-3.381-3.708-1.071-.302.873-.828 2.95-1.013 4.989"/></g></g></svg>