<?xml version="1.0" encoding="utf-8"?>
<!-- Generator: Adobe Illustrator 15.0.0, SVG Export Plug-In . SVG Version: 6.00 Build 0)  -->
<!DOCTYPE svg PUBLIC "-//W3C//DTD SVG 1.1//EN" "http://www.w3.org/Graphics/SVG/1.1/DTD/svg11.dtd">
<svg version="1.1" xmlns="http://www.w3.org/2000/svg" xmlns:xlink="http://www.w3.org/1999/xlink" x="0px" y="0px" width="512px"
	 height="512px" viewBox="0 0 512 512" enable-background="new 0 0 512 512" xml:space="preserve">
<g id="Ebene_3">
	<g id="Logo">
		<circle fill="#FFFFFF" stroke="#000000" stroke-width="2" stroke-miterlimit="10" cx="272.667" cy="378.13" r="120.472"/>
		<g>
			
				<circle fill="none" stroke="#000000" stroke-width="2" stroke-miterlimit="10" stroke-dasharray="1.9957,1.9957" cx="272.667" cy="378.13" r="114.34"/>
		</g>
		<g display="none">
			<path display="inline" d="M200.173,384.19c-1.925,0.66-3.862,0.938-5.813,0.829s-3.696-0.694-5.237-1.76
				c-1.541-1.064-2.679-2.668-3.413-4.807c-0.636-1.854-0.766-3.422-0.39-4.708c0.375-1.283,1.025-2.324,1.948-3.119
				c0.922-0.795,1.865-1.358,2.828-1.688c-0.607,1.365-0.948,2.757-1.019,4.176c-0.071,1.42,0.108,2.753,0.536,4
				c0.453,1.32,1.169,2.448,2.148,3.387c0.98,0.94,2.195,1.549,3.646,1.828c1.45,0.28,3.104,0.101,4.957-0.536
				c1.604-0.55,3.072-1.382,4.403-2.496c1.331-1.114,2.288-2.42,2.871-3.914c0.583-1.495,0.581-3.099-0.007-4.811
				c-0.525-1.532-1.371-2.718-2.534-3.554c-1.164-0.835-2.507-1.471-4.031-1.905c-1.523-0.433-3.115-0.803-4.774-1.11
				c-1.66-0.307-3.254-0.687-4.784-1.138s-2.883-1.112-4.059-1.985c-1.176-0.872-2.039-2.109-2.589-3.714
				c-0.514-1.497-0.696-3.188-0.545-5.073c0.15-1.885,0.644-3.787,1.479-5.709c0.835-1.919,2.033-3.655,3.593-5.207
				s3.498-2.725,5.815-3.521c2.103-0.722,3.739-0.716,4.908,0.019c1.169,0.736,2.017,1.87,2.543,3.402
				c0.44,1.284,0.691,2.742,0.753,4.374c0.062,1.633,0.002,3.228-0.182,4.785c-0.182,1.557-0.4,2.897-0.652,4.021
				c-0.69,0.077-1.24-0.043-1.648-0.362c-0.407-0.317-0.71-0.762-0.906-1.332c-0.257-0.749-0.389-1.659-0.399-2.732
				c-0.009-1.073,0.014-2.195,0.069-3.372c0.055-1.173,0.075-2.306,0.06-3.396c-0.016-1.092-0.158-2.028-0.428-2.813
				c-0.244-0.713-0.65-1.202-1.219-1.465c-0.569-0.263-1.424-0.198-2.564,0.193c-1.677,0.575-3.093,1.5-4.249,2.772
				c-1.157,1.274-2.059,2.709-2.707,4.306c-0.647,1.598-1.032,3.175-1.155,4.731c-0.124,1.558,0.004,2.889,0.383,3.993
				c0.453,1.319,1.224,2.319,2.315,3.001c1.091,0.683,2.374,1.198,3.849,1.548c1.476,0.352,3.031,0.675,4.667,0.97
				c1.635,0.296,3.218,0.699,4.748,1.21s2.896,1.268,4.097,2.271c1.201,1.003,2.113,2.412,2.737,4.231
				c0.636,1.854,0.786,3.626,0.449,5.315c-0.337,1.69-1.026,3.252-2.068,4.686c-1.042,1.433-2.298,2.681-3.767,3.743
				C203.367,382.815,201.813,383.628,200.173,384.19z"/>
			<path display="inline" d="M232.182,370.337c-1.106,0.38-2.038,0.131-2.796-0.744c-0.76-0.875-1.384-2.026-1.872-3.452
				c-0.245-0.714-0.477-1.5-0.691-2.363c-0.217-0.861-0.412-1.722-0.586-2.578c-0.246,1.838-0.573,3.644-0.981,5.416
				c-0.406,1.776-0.951,3.297-1.631,4.566c-0.681,1.27-1.573,2.094-2.678,2.473c-1.177,0.404-2.323,0.199-3.438-0.613
				s-1.925-1.949-2.426-3.412c-0.355-1.033-0.597-2.285-0.723-3.758c-0.125-1.47-0.166-2.951-0.119-4.44
				c0.046-1.491,0.19-2.756,0.432-3.795s0.557-1.627,0.95-1.762c0.178-0.061,0.586-0.091,1.224-0.091
				c0.637,0,1.012,0.161,1.121,0.481c-0.184,0.742-0.347,1.833-0.489,3.276c-0.142,1.445-0.179,2.961-0.111,4.552
				c0.067,1.592,0.303,2.975,0.707,4.151c0.098,0.286,0.282,0.71,0.557,1.272c0.272,0.564,0.623,1.033,1.05,1.404
				c0.426,0.372,0.924,0.46,1.495,0.264c0.819-0.281,1.515-1.098,2.088-2.45c0.572-1.351,1.052-2.971,1.44-4.858
				c0.389-1.886,0.718-3.772,0.988-5.659c-0.217-1.559-0.343-2.711-0.379-3.455c-0.037-0.744,0.019-1.252,0.165-1.522
				c0.146-0.27,0.38-0.459,0.701-0.569c0.463-0.158,0.871-0.189,1.224-0.091s0.597,0.343,0.731,0.735
				c0.024,0.072,0.046,0.164,0.064,0.276c0.019,0.113,0.028,0.23,0.03,0.349c0.043,0.941,0.173,2.104,0.388,3.483
				c0.215,1.382,0.489,2.791,0.824,4.229c0.334,1.44,0.71,2.767,1.126,3.978c0.281,0.82,0.59,1.433,0.928,1.834
				c0.337,0.402,0.72,0.53,1.147,0.384c0.535-0.184,1.046-0.727,1.532-1.632c0.486-0.903,0.927-2.03,1.32-3.383
				c0.394-1.35,0.734-2.792,1.026-4.326c0.289-1.535,0.507-3.024,0.648-4.468c-0.636-1.854-0.988-3.316-1.058-4.389
				s0.04-1.857,0.328-2.354c0.287-0.497,0.645-0.818,1.072-0.966c0.678-0.232,1.25-0.161,1.719,0.217
				c0.468,0.378,0.771,0.763,0.904,1.154c0.086,0.25,0.121,0.527,0.105,0.83c-0.015,0.305-0.057,0.647-0.125,1.029
				c-0.102,0.634-0.151,1.418-0.148,2.354c0.001,0.936,0.254,2.135,0.756,3.596c0.195,0.57,0.457,1.158,0.783,1.764
				c0.328,0.605,0.743,1.061,1.247,1.366c0.502,0.306,1.129,0.329,1.878,0.072c0.748-0.257,1.369-0.799,1.862-1.626
				s0.828-2.087,1.004-3.781l0.878,0.296c-0.172,2.053-0.627,3.543-1.363,4.474c-0.737,0.931-1.533,1.542-2.389,1.836
				c-1.105,0.379-2.17,0.325-3.193-0.16c-1.024-0.485-1.971-1.416-2.84-2.791c-0.33,1.947-0.783,3.877-1.362,5.788
				c-0.579,1.912-1.288,3.561-2.128,4.944C234.259,369.075,233.286,369.958,232.182,370.337z"/>
			<path display="inline" d="M253.708,362.172c-1.391,0.477-2.575,0.396-3.552-0.245c-0.977-0.642-1.68-1.585-2.107-2.833
				c-0.282-0.82-0.484-1.906-0.61-3.259c-0.126-1.351-0.174-2.799-0.146-4.344c0.028-1.543,0.164-3.035,0.408-4.474
				c0.242-1.438,0.607-2.669,1.094-3.693c0.485-1.022,1.084-1.656,1.798-1.901c0.321-0.11,0.63-0.106,0.93,0.009
				c0.299,0.118,0.517,0.372,0.65,0.764c0.147,0.428,0.108,1.218-0.113,2.369c-0.223,1.154-0.493,2.481-0.813,3.986
				c-0.321,1.507-0.522,3.039-0.604,4.602c-0.082,1.563,0.092,2.967,0.52,4.215c0.44,1.284,0.948,2.066,1.522,2.347
				c0.575,0.281,1.308,0.269,2.199-0.037c1.212-0.416,2.297-1.465,3.253-3.149c0.957-1.682,1.682-4.302,2.175-7.858l0.665,0.368
				c0.019,3.423-0.663,6.286-2.043,8.593C257.553,359.936,255.811,361.45,253.708,362.172z M251.72,335.477
				c-0.57,0.195-1.127,0.228-1.671,0.095c-0.544-0.132-0.919-0.501-1.127-1.108c-0.257-0.748-0.044-1.548,0.641-2.4
				c0.684-0.853,1.453-1.426,2.31-1.72c0.534-0.184,1.005-0.205,1.411-0.065c0.406,0.139,0.715,0.513,0.922,1.118
				c0.232,0.678,0.091,1.454-0.427,2.328C253.262,334.599,252.576,335.183,251.72,335.477z"/>
			<path display="inline" d="M279.909,352.822c-1.249,0.428-2.294,0.429-3.138,0.002c-0.845-0.429-1.438-1.142-1.78-2.141
				c-0.257-0.748-0.393-1.578-0.407-2.49c-0.014-0.911-0.046-1.847-0.096-2.806c-0.051-0.96-0.216-1.85-0.497-2.67
				c-0.343-0.998-0.784-1.614-1.321-1.847c-0.539-0.234-1.111-0.247-1.717-0.039c-1.106,0.38-2.073,1.219-2.901,2.52
				c-0.83,1.301-1.536,2.839-2.124,4.613c-0.585,1.777-1.086,3.572-1.498,5.388c-0.414,1.815-0.775,3.435-1.084,4.854
				c-0.57,0.195-1.147,0.284-1.732,0.266c-0.583-0.019-1.085-0.176-1.506-0.469c-0.061-0.179-0.063-0.795-0.007-1.851
				s0.102-2.346,0.136-3.873c0.033-1.525,0.002-3.069-0.095-4.63c-0.098-1.56-0.348-2.929-0.751-4.105
				c0.128-0.322,0.381-0.688,0.759-1.098c0.378-0.408,0.815-0.698,1.315-0.87c0.963-0.33,1.603-0.031,1.921,0.895
				c0.196,0.571,0.362,1.579,0.501,3.027c0.137,1.446,0.208,2.987,0.211,4.619c0.461-1.791,1.04-3.615,1.739-5.469
				c0.698-1.853,1.56-3.494,2.585-4.921c1.024-1.428,2.214-2.374,3.569-2.84c1.39-0.477,2.568-0.322,3.535,0.461
				c0.966,0.785,1.658,1.783,2.073,2.995c0.38,1.104,0.553,2.19,0.521,3.259c-0.033,1.066-0.087,2.101-0.161,3.104
				c-0.075,1.002,0.041,1.948,0.347,2.839c0.257,0.749,0.589,1.224,0.996,1.421c0.406,0.201,0.842,0.221,1.306,0.062
				c0.891-0.306,1.639-1.031,2.243-2.175c0.604-1.143,1.104-2.5,1.501-4.072c0.397-1.57,0.69-3.126,0.88-4.665l0.827,0.493
				c-0.149,2.005-0.455,3.843-0.917,5.515c-0.463,1.675-1.111,3.093-1.947,4.255C282.358,351.543,281.264,352.357,279.909,352.822z"
				/>
			<path display="inline" d="M294.359,363.405c-0.785,0.269-1.58,0.273-2.387,0.012c-0.808-0.26-1.4-0.944-1.779-2.049
				c-0.367-1.069-0.377-2.172-0.029-3.308c0.347-1.136,0.906-2.265,1.678-3.386c0.771-1.122,1.661-2.214,2.671-3.277
				s1.969-2.071,2.879-3.021c0.07-1.419,0.08-2.927,0.031-4.524c-0.05-1.597-0.161-3.342-0.333-5.235
				c-0.682,2.426-1.539,4.543-2.571,6.353c-1.033,1.81-2.298,2.971-3.796,3.484c-1.283,0.44-2.438,0.298-3.464-0.426
				c-1.024-0.724-1.802-1.853-2.327-3.386c-0.637-1.854-0.787-3.773-0.453-5.763c0.334-1.987,1.012-3.874,2.034-5.659
				c1.021-1.785,2.226-3.324,3.615-4.619c1.389-1.292,2.796-2.184,4.223-2.674c1.033-0.354,1.831-0.438,2.394-0.254
				c0.562,0.188,0.923,0.511,1.081,0.974c0.11,0.321,0.106,0.603-0.01,0.841c-0.117,0.24-0.206,0.391-0.265,0.45
				c-0.276-0.224-0.614-0.337-1.014-0.34s-0.865,0.089-1.4,0.272c-1.391,0.477-2.596,1.349-3.615,2.615
				c-1.021,1.267-1.81,2.713-2.367,4.339c-0.559,1.626-0.896,3.226-1.013,4.801s0.021,2.933,0.411,4.072
				c0.294,0.856,0.686,1.45,1.178,1.778c0.492,0.329,1.022,0.396,1.594,0.199c1.033-0.354,2.037-1.465,3.01-3.334
				c0.974-1.866,1.8-4.015,2.482-6.44c-0.064-0.536-0.119-1.014-0.164-1.438c-0.047-0.422-0.102-0.96-0.167-1.617
				c-0.064-0.534-0.005-1.202,0.18-2.003c0.183-0.8,0.721-1.354,1.612-1.659c0.178-0.062,0.358-0.113,0.543-0.157
				c0.185-0.042,0.396-0.066,0.635-0.068c0.195,0.57,0.384,1.672,0.565,3.303c0.181,1.633,0.306,3.563,0.372,5.79
				c0.068,2.229,0.059,4.553-0.027,6.974c0.98-0.974,1.881-2.099,2.697-3.377c0.817-1.274,1.49-2.651,2.02-4.13
				c0.529-1.476,0.829-2.983,0.899-4.521l0.878,0.295c0.016,1.788-0.337,3.545-1.062,5.267c-0.724,1.724-1.589,3.295-2.596,4.718
				c-1.007,1.42-1.972,2.588-2.893,3.502c-0.179,2.731-0.481,5.277-0.907,7.635c-0.427,2.357-1.035,4.33-1.825,5.917
				C296.786,361.916,295.713,362.94,294.359,363.405z M293.611,361.749c0.713-0.245,1.442-1.282,2.189-3.112
				c0.747-1.832,1.246-4.702,1.498-8.613c-1.182,1.201-2.256,2.396-3.223,3.586c-0.968,1.188-1.697,2.346-2.187,3.471
				c-0.491,1.124-0.56,2.203-0.204,3.237c0.195,0.57,0.476,0.981,0.842,1.235C292.893,361.806,293.255,361.871,293.611,361.749z"/>
			<path display="inline" d="M312.318,342.059c-1.39,0.477-2.574,0.395-3.551-0.246c-0.978-0.641-1.68-1.584-2.108-2.832
				c-0.281-0.82-0.483-1.907-0.61-3.259c-0.125-1.351-0.173-2.8-0.145-4.344s0.163-3.035,0.407-4.474
				c0.243-1.438,0.608-2.669,1.094-3.693c0.486-1.022,1.085-1.657,1.798-1.902c0.321-0.109,0.631-0.105,0.93,0.01
				c0.299,0.118,0.517,0.372,0.651,0.764c0.146,0.428,0.108,1.218-0.114,2.369c-0.223,1.154-0.493,2.481-0.813,3.986
				c-0.321,1.506-0.521,3.039-0.603,4.602c-0.083,1.563,0.091,2.966,0.52,4.214c0.44,1.284,0.947,2.066,1.522,2.348
				c0.574,0.28,1.308,0.269,2.198-0.038c1.212-0.415,2.297-1.465,3.254-3.148c0.956-1.682,1.682-4.303,2.175-7.859l0.664,0.368
				c0.019,3.424-0.663,6.287-2.042,8.593C316.163,339.822,314.422,341.336,312.318,342.059z M310.331,315.362
				c-0.57,0.196-1.127,0.228-1.671,0.096c-0.545-0.132-0.919-0.501-1.127-1.108c-0.258-0.748-0.045-1.549,0.641-2.401
				c0.684-0.853,1.453-1.425,2.309-1.719c0.535-0.184,1.006-0.205,1.412-0.065c0.406,0.139,0.714,0.513,0.922,1.118
				c0.232,0.678,0.09,1.453-0.427,2.328S311.187,315.069,310.331,315.362z"/>
			<path display="inline" d="M338.52,332.709c-1.248,0.428-2.294,0.429-3.138,0.001c-0.845-0.429-1.437-1.141-1.78-2.14
				c-0.256-0.748-0.393-1.578-0.406-2.49c-0.014-0.911-0.047-1.848-0.096-2.807c-0.051-0.959-0.216-1.849-0.498-2.669
				c-0.342-0.998-0.783-1.614-1.321-1.848c-0.539-0.234-1.11-0.246-1.717-0.038c-1.105,0.379-2.072,1.219-2.901,2.52
				s-1.536,2.839-2.123,4.613c-0.586,1.777-1.086,3.572-1.499,5.387c-0.413,1.815-0.774,3.435-1.083,4.855
				c-0.571,0.195-1.147,0.284-1.732,0.266c-0.584-0.02-1.086-0.176-1.506-0.469c-0.062-0.179-0.064-0.795-0.008-1.852
				c0.057-1.055,0.102-2.346,0.137-3.872c0.033-1.526,0.002-3.069-0.096-4.631c-0.097-1.56-0.348-2.929-0.751-4.105
				c0.128-0.322,0.381-0.688,0.759-1.098c0.379-0.407,0.816-0.698,1.316-0.869c0.962-0.33,1.603-0.032,1.92,0.894
				c0.196,0.572,0.363,1.58,0.501,3.028c0.138,1.445,0.208,2.987,0.211,4.619c0.461-1.791,1.04-3.615,1.739-5.469
				s1.561-3.495,2.586-4.922c1.023-1.428,2.213-2.374,3.568-2.839c1.391-0.478,2.569-0.322,3.535,0.46
				c0.966,0.785,1.658,1.783,2.074,2.995c0.379,1.104,0.552,2.191,0.521,3.259c-0.033,1.067-0.087,2.102-0.161,3.104
				c-0.074,1.003,0.041,1.949,0.347,2.84c0.257,0.749,0.589,1.224,0.996,1.421c0.407,0.201,0.843,0.221,1.307,0.062
				c0.891-0.306,1.638-1.031,2.242-2.176c0.604-1.143,1.104-2.5,1.502-4.071c0.396-1.57,0.69-3.126,0.88-4.665l0.826,0.492
				c-0.148,2.005-0.455,3.844-0.917,5.516c-0.462,1.675-1.11,3.093-1.947,4.255C340.97,331.429,339.874,332.244,338.52,332.709z"/>
			<path display="inline" d="M336.46,297.788c-0.312-0.092-0.617-0.228-0.916-0.403c-0.3-0.175-0.505-0.425-0.614-0.745
				c-0.159-0.464-0.115-1.146,0.134-2.049c0.248-0.902,0.505-1.837,0.771-2.806c0.267-0.967,0.377-1.803,0.336-2.506
				c0.355-0.122,0.721-0.077,1.092,0.134s0.624,0.513,0.759,0.905c0.159,0.464,0.147,1.125-0.036,1.985
				c-0.183,0.86-0.435,1.783-0.753,2.769C336.912,296.059,336.655,296.964,336.46,297.788z"/>
			<path display="inline" d="M213.479,434.116c-0.943-0.195-1.611-0.514-2.002-0.957c-0.392-0.444-0.648-0.845-0.771-1.2
				c-0.343-1-0.441-2.479-0.298-4.441c0.143-1.962,0.455-4.25,0.932-6.865c0.478-2.613,1.062-5.355,1.751-8.223
				c-1.356,0.347-2.503,0.66-3.442,0.942c-0.939,0.283-1.748,0.541-2.425,0.773l-1.871,0.642c0.038-1.168,0.475-2.126,1.315-2.872
				c0.84-0.745,1.937-1.353,3.292-1.817c0.606-0.208,1.242-0.387,1.908-0.536c0.667-0.147,1.356-0.285,2.07-0.411
				c0.877-3.368,1.825-6.672,2.846-9.913c1.02-3.238,2.014-6.15,2.98-8.733s1.825-4.581,2.575-5.995
				c0.691-1.354,1.376-2.147,2.053-2.38c0.392-0.134,0.882-0.132,1.467,0.007c0.585,0.138,1.237,0.381,1.955,0.732
				c-0.258,0.409-0.453,1.321-0.583,2.741c-0.132,1.42-0.19,3.164-0.178,5.232c0.012,2.067,0.094,4.312,0.247,6.729
				c0.151,2.42,0.364,4.868,0.636,7.344c0.272,2.478,0.612,4.803,1.02,6.974c0.406,2.173,0.879,4.043,1.417,5.611
				c0.465,1.355,0.977,2.354,1.538,2.999c0.559,0.645,1.195,0.844,1.908,0.6c0.927-0.318,1.759-1.32,2.495-3.008
				c0.735-1.688,1.334-4.125,1.795-7.311l0.718,0.351c-0.09,3.221-0.652,6.023-1.687,8.409c-1.034,2.389-2.442,3.888-4.225,4.499
				c-1.463,0.502-2.747,0.216-3.852-0.859c-1.107-1.075-2.032-2.7-2.778-4.875c-0.392-1.141-0.74-2.416-1.045-3.826
				s-0.564-2.894-0.781-4.454c-1.654,0.289-3.16,0.576-4.516,0.862c-1.357,0.286-2.612,0.549-3.766,0.784
				c-0.612,3.677-1.148,7.428-1.608,11.252C214.108,426.747,213.744,430.478,213.479,434.116z M224.191,408.022
				c-0.272-2.536-0.467-5.13-0.578-7.781c-0.113-2.65-0.142-5.202-0.086-7.652c0.057-2.45,0.158-4.616,0.31-6.502
				c-0.873,1.057-1.734,2.697-2.585,4.921c-0.851,2.227-1.652,4.853-2.407,7.88c-0.754,3.029-1.461,6.311-2.121,9.845
				c1.298-0.166,2.596-0.303,3.894-0.409C221.916,408.216,223.107,408.117,224.191,408.022z"/>
			<path display="inline" d="M243.441,421.442c-1.105,0.379-2.168,0.335-3.185-0.134c-1.017-0.467-1.782-1.449-2.296-2.947
				c-0.441-1.283-0.629-2.762-0.566-4.438c0.062-1.676,0.345-3.406,0.848-5.193c0.502-1.786,1.182-3.494,2.038-5.124
				c0.854-1.627,1.865-3.039,3.028-4.236c1.164-1.196,2.441-2.033,3.831-2.51c1.391-0.478,2.675-0.51,3.853-0.098
				c1.178,0.414,1.975,1.228,2.391,2.438c0.307,0.892,0.273,1.579-0.098,2.065c-0.371,0.485-0.949,0.864-1.733,1.133
				c-0.026-0.31-0.071-0.643-0.134-0.999c-0.063-0.358-0.143-0.679-0.241-0.965c-0.281-0.819-0.72-1.457-1.313-1.91
				s-1.372-0.516-2.334-0.186c-0.999,0.343-1.896,1.04-2.691,2.09s-1.476,2.32-2.04,3.809c-0.564,1.489-0.989,3.039-1.273,4.651
				c-0.283,1.611-0.413,3.151-0.388,4.616c0.024,1.467,0.214,2.717,0.568,3.75c0.478,1.391,1.197,1.92,2.16,1.59
				c0.819-0.281,1.58-0.97,2.279-2.066c0.7-1.098,1.354-2.417,1.959-3.961c0.605-1.543,1.152-3.115,1.639-4.718
				c0.486-1.6,0.902-3.058,1.249-4.373c0.069-0.263,0.121-0.399,0.157-0.412c0.227-0.037,0.526-0.062,0.902-0.071
				c0.375-0.009,0.719,0.033,1.029,0.125c0.311,0.094,0.516,0.282,0.613,0.567c0.109,0.32,0.1,0.813-0.031,1.476
				c-0.132,0.662-0.271,1.417-0.419,2.266s-0.256,1.691-0.326,2.533c-0.07,0.841,0.005,1.582,0.226,2.224
				c0.184,0.535,0.506,1.013,0.969,1.431c0.463,0.42,1.015,0.519,1.656,0.298c0.963-0.33,1.986-1.468,3.072-3.415
				c1.085-1.946,1.947-4.604,2.585-7.971l0.718,0.351c-0.087,2.183-0.469,4.208-1.144,6.072c-0.675,1.865-1.54,3.438-2.596,4.717
				s-2.226,2.138-3.509,2.578c-1.319,0.453-2.426,0.394-3.318-0.177c-0.893-0.568-1.498-1.317-1.816-2.245
				c-0.074-0.215-0.139-0.46-0.195-0.74c-0.056-0.279-0.115-0.567-0.177-0.865c-0.823,2.595-1.691,4.626-2.602,6.093
				C245.875,420.028,244.76,420.989,243.441,421.442z"/>
			<path display="inline" d="M270.077,412.839c-1.711,0.588-3.333,0.506-4.865-0.242c-1.532-0.75-2.689-2.266-3.473-4.548
				c-0.611-1.781-0.86-3.639-0.747-5.571c0.114-1.933,0.509-3.771,1.186-5.518c0.676-1.746,1.571-3.26,2.687-4.539
				s2.35-2.151,3.705-2.616c1.461-0.502,2.606-0.416,3.435,0.256c0.829,0.672,1.402,1.472,1.721,2.398
				c0.354,1.034,0.426,2.026,0.214,2.976s-0.729,1.564-1.548,1.846c-0.607,0.208-1.216,0.118-1.826-0.27
				c0.437-0.468,0.701-1.206,0.793-2.216c0.093-1.008,0.005-1.902-0.265-2.688c-0.146-0.428-0.341-0.73-0.58-0.907
				c-0.24-0.177-0.593-0.186-1.056-0.026c-0.963,0.33-1.805,1.098-2.527,2.302c-0.722,1.205-1.289,2.634-1.696,4.289
				c-0.409,1.654-0.632,3.326-0.671,5.013s0.168,3.19,0.621,4.509c0.379,1.104,0.995,2.03,1.848,2.773
				c0.853,0.742,2.046,0.852,3.579,0.325c1.426-0.489,2.727-1.374,3.901-2.654c1.175-1.278,2.135-2.863,2.881-4.754
				c0.746-1.89,1.158-3.944,1.233-6.162l0.879,0.297c-0.086,2.421-0.552,4.723-1.396,6.905s-1.958,4.049-3.339,5.599
				S271.824,412.24,270.077,412.839z"/>
			<path display="inline" d="M283.812,407.05c-0.677,0.232-1.408-0.154-2.192-1.16c-0.783-1.005-1.419-2.223-1.908-3.649
				c-0.588-1.711-1-3.841-1.237-6.39c-0.237-2.548-0.339-5.283-0.304-8.204c0.033-2.921,0.201-5.829,0.504-8.722
				c0.302-2.893,0.711-5.564,1.226-8.013c0.515-2.447,1.099-4.461,1.753-6.041c0.653-1.578,1.372-2.503,2.156-2.771
				c0.643-0.221,1.229,0.006,1.759,0.681s0.918,1.369,1.162,2.081c0.343,0.999,0.536,2.289,0.579,3.866
				c0.044,1.58-0.049,3.315-0.275,5.206c-0.228,1.893-0.589,3.8-1.084,5.723c-0.496,1.924-1.127,3.744-1.893,5.461
				c-0.766,1.719-1.645,3.165-2.635,4.342c-0.073,1.181-0.041,2.465,0.097,3.853c0.137,1.388,0.345,2.721,0.626,4
				c0.277,1.278,0.583,2.399,0.914,3.361c0.135,0.394,0.259,0.729,0.375,1.009c0.116,0.278,0.234,0.536,0.355,0.773
				c-0.002-1.633,0.055-3.237,0.172-4.812c0.117-1.573,0.316-3.057,0.596-4.448s0.652-2.654,1.12-3.792
				c0.467-1.136,1.045-2.093,1.736-2.867c0.69-0.775,1.517-1.327,2.479-1.658c0.998-0.342,1.874-0.374,2.628-0.095
				s1.39,0.739,1.908,1.379c0.518,0.639,0.912,1.351,1.181,2.134c0.379,1.106,0.56,2.24,0.54,3.401
				c-0.02,1.164-0.061,2.293-0.123,3.391c-0.062,1.098,0.061,2.092,0.366,2.982c0.245,0.714,0.573,1.179,0.987,1.395
				c0.412,0.218,0.851,0.246,1.314,0.088c0.819-0.282,1.604-0.988,2.35-2.122c0.748-1.132,1.397-2.521,1.949-4.166
				c0.551-1.644,0.92-3.354,1.107-5.132l0.916,0.402c-0.149,2.005-0.518,3.895-1.104,5.669c-0.586,1.777-1.381,3.293-2.383,4.554
				c-1.002,1.26-2.198,2.13-3.588,2.607c-1.213,0.416-2.242,0.41-3.086-0.018s-1.431-1.124-1.762-2.086
				c-0.257-0.749-0.401-1.635-0.434-2.66c-0.033-1.024-0.082-2.064-0.145-3.119c-0.063-1.054-0.24-2.009-0.534-2.865
				c-0.318-0.927-0.741-1.519-1.268-1.777c-0.526-0.256-1.076-0.287-1.646-0.092c-0.892,0.306-1.571,0.938-2.04,1.896
				c-0.468,0.958-0.804,2.099-1.007,3.424c-0.202,1.325-0.349,2.701-0.437,4.125c-0.089,1.427-0.173,2.779-0.251,4.062
				s-0.227,2.359-0.445,3.23C284.67,406.357,284.311,406.879,283.812,407.05z M281.401,387.135c0.729-1.126,1.358-2.458,1.887-3.995
				c0.528-1.536,0.968-3.132,1.317-4.785c0.349-1.654,0.617-3.251,0.807-4.791c0.189-1.538,0.277-2.905,0.268-4.097
				c-0.011-1.192-0.107-2.056-0.291-2.59c-0.061-0.179-0.119-0.288-0.173-0.33c-0.054-0.041-0.116-0.049-0.188-0.024
				c-0.25,0.086-0.59,0.751-1.02,1.993c-0.431,1.244-0.863,2.857-1.299,4.839c-0.436,1.983-0.779,4.175-1.032,6.572
				C281.425,382.325,281.332,384.728,281.401,387.135z"/>
			<path display="inline" d="M312.641,397.517c-2.176,0.747-4.012,0.709-5.509-0.112s-2.546-2.105-3.146-3.854
				c-0.551-1.604-0.73-3.435-0.54-5.493s0.686-4.1,1.484-6.128c0.799-2.026,1.832-3.807,3.1-5.338s2.686-2.565,4.255-3.104
				c0.819-0.281,1.65-0.329,2.493-0.14c0.842,0.19,1.489,0.944,1.942,2.263c0.465,1.355,0.5,2.768,0.108,4.237
				c-0.393,1.471-1.08,2.892-2.063,4.265c-0.983,1.375-2.148,2.621-3.498,3.742c-1.35,1.119-2.766,2.016-4.25,2.684
				c0.051,0.381,0.113,0.737,0.188,1.07c0.074,0.333,0.161,0.643,0.259,0.928c0.184,0.534,0.429,1.048,0.737,1.54
				c0.308,0.492,0.699,0.906,1.173,1.242c0.475,0.335,1.029,0.532,1.668,0.592c0.639,0.061,1.367-0.051,2.188-0.332
				c1.533-0.526,2.898-1.483,4.096-2.87c1.198-1.387,2.194-3.014,2.988-4.881c0.794-1.866,1.343-3.809,1.647-5.825l0.808,0.261
				c-0.229,2.471-0.814,4.743-1.756,6.819c-0.941,2.077-2.127,3.849-3.556,5.314C316.027,395.864,314.422,396.905,312.641,397.517z
				 M306.937,389.431c0.853-0.651,1.777-1.496,2.775-2.537c0.998-1.039,1.912-2.181,2.741-3.421c0.83-1.242,1.433-2.504,1.809-3.789
				c0.376-1.284,0.369-2.497-0.023-3.639c-0.134-0.392-0.311-0.67-0.525-0.836c-0.217-0.164-0.557-0.167-1.02-0.008
				c-0.855,0.294-1.651,0.935-2.388,1.925s-1.367,2.173-1.892,3.549c-0.523,1.375-0.922,2.826-1.194,4.354
				C306.947,386.559,306.853,388.024,306.937,389.431z"/>
			<path display="inline" d="M341.505,386.176c-1.248,0.429-2.294,0.43-3.138,0.001c-0.845-0.428-1.438-1.14-1.78-2.14
				c-0.257-0.748-0.393-1.578-0.406-2.49c-0.014-0.911-0.047-1.847-0.097-2.807c-0.051-0.959-0.216-1.848-0.497-2.668
				c-0.343-0.998-0.783-1.614-1.321-1.848c-0.539-0.234-1.111-0.247-1.717-0.039c-1.105,0.38-2.072,1.219-2.901,2.52
				s-1.536,2.839-2.123,4.613c-0.586,1.776-1.086,3.571-1.499,5.388c-0.414,1.815-0.774,3.434-1.084,4.854
				c-0.57,0.196-1.147,0.285-1.731,0.267c-0.584-0.02-1.086-0.176-1.506-0.47c-0.062-0.178-0.063-0.795-0.007-1.85
				c0.056-1.056,0.102-2.346,0.135-3.874c0.034-1.524,0.003-3.067-0.095-4.629c-0.097-1.561-0.347-2.929-0.751-4.105
				c0.128-0.323,0.381-0.688,0.759-1.099c0.378-0.407,0.816-0.698,1.315-0.87c0.963-0.33,1.604-0.031,1.922,0.896
				c0.195,0.57,0.362,1.579,0.5,3.026s0.208,2.988,0.211,4.62c0.461-1.791,1.04-3.615,1.739-5.468
				c0.699-1.854,1.561-3.495,2.585-4.923c1.024-1.427,2.214-2.373,3.569-2.839c1.39-0.477,2.569-0.323,3.535,0.461
				s1.658,1.783,2.073,2.995c0.38,1.104,0.553,2.191,0.521,3.258c-0.033,1.067-0.086,2.103-0.161,3.104s0.041,1.948,0.347,2.838
				c0.257,0.75,0.59,1.225,0.996,1.423c0.406,0.199,0.843,0.22,1.306,0.06c0.892-0.305,1.639-1.03,2.243-2.174
				c0.604-1.143,1.104-2.501,1.502-4.073c0.396-1.569,0.69-3.125,0.879-4.664l0.827,0.493c-0.149,2.004-0.455,3.842-0.917,5.515
				c-0.462,1.674-1.111,3.093-1.947,4.255C343.955,384.896,342.859,385.711,341.505,386.176z"/>
			<path display="inline" d="M263.244,468.96c-2.176,0.747-4.012,0.709-5.508-0.112c-1.498-0.821-2.546-2.105-3.146-3.853
				c-0.551-1.604-0.73-3.435-0.54-5.493s0.686-4.101,1.483-6.129c0.799-2.026,1.832-3.806,3.101-5.338
				c1.268-1.53,2.686-2.565,4.254-3.104c0.82-0.28,1.651-0.327,2.493-0.138c0.843,0.189,1.49,0.944,1.942,2.262
				c0.465,1.356,0.501,2.768,0.108,4.237c-0.392,1.471-1.08,2.893-2.063,4.266c-0.984,1.373-2.149,2.62-3.499,3.74
				c-1.349,1.121-2.766,2.016-4.249,2.685c0.05,0.381,0.112,0.737,0.188,1.071c0.074,0.333,0.16,0.643,0.258,0.927
				c0.184,0.535,0.43,1.049,0.738,1.54c0.308,0.493,0.699,0.906,1.173,1.241c0.474,0.337,1.029,0.534,1.668,0.594
				c0.638,0.06,1.367-0.051,2.188-0.332c1.532-0.526,2.898-1.483,4.097-2.87c1.197-1.387,2.193-3.015,2.986-4.881
				c0.795-1.866,1.344-3.809,1.647-5.825l0.808,0.261c-0.229,2.47-0.814,4.743-1.755,6.819c-0.941,2.077-2.127,3.848-3.556,5.314
				C266.631,467.309,265.026,468.349,263.244,468.96z M257.54,460.875c0.853-0.651,1.778-1.497,2.776-2.537s1.912-2.181,2.741-3.421
				c0.829-1.242,1.433-2.505,1.808-3.79c0.376-1.283,0.369-2.497-0.022-3.639c-0.134-0.392-0.311-0.67-0.525-0.836
				c-0.218-0.164-0.558-0.167-1.021-0.008c-0.855,0.294-1.65,0.936-2.387,1.925c-0.736,0.991-1.367,2.173-1.892,3.549
				s-0.923,2.827-1.195,4.354C257.551,458.002,257.456,459.469,257.54,460.875z"/>
			<path display="inline" d="M276.791,462.278c-0.464,0.159-0.904,0.18-1.322,0.065c-0.419-0.115-0.713-0.422-0.885-0.922
				c-0.135-0.393-0.1-0.813,0.105-1.261c0.204-0.45,0.514-0.854,0.928-1.216s0.853-0.621,1.316-0.78
				c0.428-0.147,0.797-0.173,1.107-0.082c0.311,0.094,0.553,0.389,0.724,0.888c0.122,0.357,0.111,0.76-0.034,1.207
				c-0.145,0.449-0.389,0.871-0.73,1.268C277.657,461.841,277.254,462.12,276.791,462.278z"/>
			<path display="inline" d="M312.644,454.577c-0.5,0.171-1.155,0.267-1.964,0.286c-0.811,0.018-1.597-0.18-2.357-0.597
				s-1.342-1.213-1.746-2.39c-0.354-1.033-0.597-2.464-0.726-4.294c-0.13-1.827-0.214-3.901-0.252-6.22s-0.114-4.743-0.225-7.275
				c-0.113-2.532-0.343-5.032-0.692-7.504c-0.35-2.47-0.892-4.775-1.626-6.915c-0.452-1.317-0.919-2.532-1.399-3.644
				c-0.481-1.11-1.064-1.937-1.747-2.479c-0.685-0.542-1.562-0.63-2.631-0.263c-0.999,0.343-1.744,0.927-2.237,1.753
				c-0.494,0.828-0.805,1.781-0.932,2.861c-0.128,1.081-0.112,2.17,0.047,3.271c0.158,1.102,0.391,2.098,0.696,2.988
				c0.196,0.57,0.421,1.081,0.676,1.531c0.253,0.451,0.52,0.85,0.797,1.191c-1.391,0.478-2.503,0.433-3.336-0.14
				c-0.833-0.569-1.427-1.373-1.782-2.407c-0.379-1.104-0.5-2.299-0.362-3.582c0.138-1.281,0.499-2.552,1.084-3.81
				c0.585-1.256,1.368-2.372,2.349-3.346s2.13-1.688,3.449-2.142c2.211-0.758,4.156-0.458,5.837,0.896
				c1.681,1.357,3.017,3.479,4.008,6.366c0.71,2.068,1.221,4.314,1.534,6.736c0.313,2.423,0.517,4.874,0.61,7.354
				c0.094,2.479,0.147,4.871,0.162,7.177c0.015,2.307,0.089,4.413,0.226,6.319c0.136,1.906,0.412,3.466,0.827,4.677
				c0.208,0.605,0.478,1.071,0.808,1.396c0.331,0.325,0.799,0.384,1.406,0.176c0.997-0.342,1.981-1.249,2.953-2.717
				c0.97-1.47,1.856-3.327,2.659-5.576c0.803-2.247,1.493-4.706,2.072-7.375c0.577-2.67,0.989-5.392,1.233-8.165
				c0.243-2.773,0.288-5.429,0.135-7.968c-0.153-2.536-0.566-4.786-1.24-6.748c-0.611-1.781-1.328-3-2.15-3.654
				s-1.722-0.952-2.699-0.897c0.206-1.027,0.518-1.831,0.936-2.413s0.859-0.952,1.322-1.111c0.749-0.257,1.645-0.026,2.688,0.691
				c1.043,0.718,1.913,2.093,2.61,4.125c0.674,1.962,1.072,4.315,1.198,7.063c0.125,2.746,0.026,5.679-0.298,8.8
				c-0.324,3.12-0.854,6.221-1.59,9.302c-0.735,3.083-1.629,5.939-2.678,8.57c-1.051,2.633-2.223,4.848-3.518,6.648
				C315.483,452.925,314.104,454.075,312.644,454.577z"/>
			<path display="inline" d="M334.921,442.33c-0.464,0.159-0.905,0.18-1.323,0.065c-0.418-0.115-0.712-0.423-0.884-0.923
				c-0.135-0.393-0.099-0.812,0.104-1.261c0.205-0.45,0.516-0.854,0.929-1.216c0.414-0.36,0.853-0.621,1.315-0.779
				c0.429-0.147,0.797-0.174,1.108-0.083c0.311,0.095,0.552,0.39,0.723,0.889c0.123,0.357,0.112,0.76-0.033,1.207
				c-0.146,0.449-0.389,0.871-0.731,1.268C335.786,441.893,335.384,442.171,334.921,442.33z"/>
		</g>
		<g id="Follower">
			<path fill="#FFFFFF" d="M341.673,117.56c-4.425-1.672-14.415-5.449-14.415-5.449l-15.159-7.654l-7.124-4.648l0.338-10.835
				l4.752-9.934l6.723-11.799l6.537-9.349l4.385-5.449l2.205-2.875l-10.673-8.766l-10.023-4.686l-6.171-5.354l-1.707-5.113
				l2.191-9.964l3.877-4.343l14.955-3.059l14.117-0.574l7.031,1.801l12.651,2.977l12.039,5.888l14.423,8.212l8.692,6.315
				l5.349,7.133l7.388,7.951l8.333,5.602l12.036,5.027l11.402,2.195l8.209,2.74l14.028,3.274l9.535,2.897l17.549,4.741l12.494,4.784
				l5.794,3.279l3.138,3.041l1.643,3.518l-0.739,1.773l-7.267,1.252l-6.363,2.479l-3.869,2.671l-0.95,6.313l0.893,4.008
				c0,0-0.871,5.089-0.778,5.346c0.089,0.259-0.121,3.592-0.121,3.592l-3.375,3.606l-3.973,3.329c0,0-2.529,3.226-2.7,3.56
				c-0.171,0.331-1.949,4.193-2.084,4.503c-0.132,0.309-1.807,4.307-1.807,4.307l-4.866,8.152l-3.773,2.995l-4.937,2.376
				l-9.076-1.394l-8.028-4.805l-11.054-7.505l-3.706-1.469l-10.211-5.89l-7.565-1.561l-7.505-6.125l-3.403-4.335l-6.523-3.283
				l-13.743-2.323l-5.829-0.018l-5.541,3.585l-9.699,3.87l-4.737,2.941C354.883,121.034,346.094,119.231,341.673,117.56z"/>
			
				<path fill="#FFFFFF" stroke="#000000" stroke-width="2" stroke-linecap="round" stroke-linejoin="round" stroke-miterlimit="10" d="
				M328.094,124.62c0,0-40.92,28.663-45.117,32.825c-4.196,4.165-26.473,18.591-26.885,19.715
				c-0.409,1.127,30.033,16.083,35.73,19.412c5.694,3.329,43.655,26.092,43.655,26.092s-4.635-60.801-4.123-66.037
				C331.871,151.395,328.094,124.62,328.094,124.62z"/>
			
				<path fill="#FFFFFF" stroke="#000000" stroke-width="2" stroke-linecap="round" stroke-linejoin="round" stroke-miterlimit="10" d="
				M449.732,121.988c0.104-1.757,4.314-7.957,8.049-8.945s17.566,1.127,8.469,8.074
				C457.151,128.059,449.568,124.836,449.732,121.988z"/>
			
				<path fill="#FFFFFF" stroke="#000000" stroke-width="2" stroke-linecap="round" stroke-linejoin="round" stroke-miterlimit="10" d="
				M203.677,107.522c0,0,6.136-0.363,9.948,3.162c3.81,3.524,3.251,7.917,1.899,9.119c-1.355,1.206-7.333,2.461-9.521-0.576
				S200.366,110.535,203.677,107.522z"/>
			
				<path fill="#FFFFFF" stroke="#000000" stroke-width="2" stroke-linecap="round" stroke-linejoin="round" stroke-miterlimit="10" d="
				M257.771,241.752c0,0-8.688,3.158-12.626,5.872c-3.938,2.718-6.21,10.897-1.945,10.986c4.264,0.089,9.4-1.283,12.462-6.021
				C258.724,247.855,258.407,244.875,257.771,241.752z"/>
			
				<path fill="#FFFFFF" stroke="#000000" stroke-width="2" stroke-linecap="round" stroke-linejoin="round" stroke-miterlimit="10" d="
				M323.267,233.404c0,0-4.556,6.239-3.823,11.246c0.732,5.008,2.54,9.329,5.521,6.019c2.98-3.315,7.586-8.746,6.31-11.997
				C329.996,235.417,326.148,231.203,323.267,233.404z"/>
			<path fill="none" stroke="#000000" stroke-width="2" stroke-linecap="round" stroke-linejoin="round" stroke-miterlimit="10" d="
				M327.172,124.669c0,0-28.279,2.596-32.625,3.93c-4.347,1.333-32.074,5.004-32.074,5.004s-19.1-6.171-23.268-7.487
				c-4.169-1.319-22.535-7.131-22.535-7.131"/>
			<path fill="none" stroke="#000000" stroke-width="2" stroke-linecap="round" stroke-linejoin="round" stroke-miterlimit="10" d="
				M328.648,124.591c0,0,29.072,8.401,35.727,11.993c6.658,3.592,31.701,11.894,32.49,11.851
				c0.786-0.039,21.469-11.702,25.307-13.64c3.841-1.938,25.451-10.962,25.451-10.962"/>
			<path fill="none" stroke="#000000" stroke-width="2" stroke-linecap="round" stroke-linejoin="round" stroke-miterlimit="10" d="
				M278.997,189.824c0,0-17.844,11.837-21.45,15.027c-3.606,3.187-17.211,11.477-17.211,11.477s6.053,10.087,8.895,13.096
				c2.842,3.005,8.672,9.956,8.672,9.956"/>
			<path fill="none" stroke="#000000" stroke-width="2" stroke-linecap="round" stroke-linejoin="round" stroke-miterlimit="10" d="
				M303.058,206.235c0,0-2.489,3.6-5.047,8.941c-2.557,5.342-9.585,15.649-9.585,15.649s10.937,1.003,15.98,0.893
				c5.039-0.11,16.471,1.287,16.471,1.287"/>
			<path fill="none" stroke="#000000" stroke-width="2" stroke-linecap="round" stroke-linejoin="round" stroke-miterlimit="10" d="
				M328.055,52.054c0,0-4.773,5.294-7.52,10.016c-2.745,4.722-11.95,18.618-13.185,22.151c-1.234,3.536-3.94,12.042-1.653,16.494
				c2.287,4.45,23.993,12.306,23.993,12.306"/>
			<path fill="none" stroke="#000000" stroke-width="2" stroke-linecap="round" stroke-linejoin="round" stroke-miterlimit="10" d="
				M354.274,121.497c0,0,15.472-5.826,18.775-8.938c3.305-3.112,10.674-12.967,10.977-19.135c0.306-6.167-1.16-22.02-1.16-22.02"/>
			<path fill="none" stroke="#000000" stroke-width="2" stroke-linecap="round" stroke-linejoin="round" stroke-miterlimit="10" d="
				M329.032,70.615c0,0,1.522,1.814,2.081,3.52c0.559,1.705,2.539,3.336,2.539,3.336s1.195-7.32,6.634-5.872
				c5.438,1.449,5.114,7.304,5.114,7.304"/>
			<path fill="none" stroke="#000000" stroke-width="2" stroke-linecap="round" stroke-linejoin="round" stroke-miterlimit="10" d="
				M352.748,80.561c0,0,5.623-6.918,8.267-4.693c2.643,2.226,1.632,10.008,1.632,10.008s4.887-0.102,7.082-0.374
				c2.19-0.272,6.715-1.302,6.715-1.302"/>
			<path fill="none" stroke="#000000" stroke-width="2" stroke-linecap="round" stroke-linejoin="round" stroke-miterlimit="10" d="
				M331.785,92.869c0,0,0.932,2.788,3.162,3.144c2.23,0.355,4.862-3.567,4.862-3.567s-0.719,4.296,0.23,4.403
				c0.95,0.107,3.188-2.375,3.188-2.375s-0.164,5.858,2.5,5.552c2.668-0.302,4.876-0.256,4.876-0.256s-10.187,10.154-17.161,6.58
				C326.472,102.774,331.785,92.869,331.785,92.869z"/>
			<path fill="none" stroke="#000000" stroke-width="2" stroke-linecap="round" stroke-linejoin="round" stroke-miterlimit="10" d="
				M384.631,54.716c0,0,8.892,4.318,5.53,9.738s-18.58,4.855-26.354,2.986c-7.779-1.869-26.359-12.742-33.038-18.315
				c-6.677-5.575-21.811-11.614-26.896-17.273c-5.086-5.657-2.898-20.362,8.202-21.632c11.104-1.27,26.607-5.506,41.314,1.012
				c14.703,6.518,33.476,16.697,39.519,23.216c6.043,6.519,9.034,15.708,23.666,20.861c14.636,5.154,54.514,13.557,65.902,17.722
				c0,0,17.239,4.903,20.959,9.493c3.717,4.592,7.594,4.615,5.367,7.809c-2.223,3.194-14.757,1.121-17.979,6.989
				c-3.222,5.869,0.641,12.164-0.914,17.261c-1.554,5.097-7.941,7.121-10.549,11.716c-2.606,4.592-6.953,17.015-8.578,18.697
				c-1.629,1.683-6.324,5.577-12.523,4.763c-6.196-0.811-16.934-7.768-18.598-9.048c-1.665-1.277-9.646-5.645-9.646-5.645"/>
			<path fill="none" stroke="#000000" stroke-width="2" stroke-linecap="round" stroke-linejoin="round" stroke-miterlimit="10" d="
				M421.09,130.065c0,0-9.111-2.024-11.484-3.838c-2.376-1.81-8.699-9.343-12.117-11.442c-3.415-2.098-21.404-3.884-21.404-3.884"/>
			<path fill="none" stroke="#000000" stroke-width="2" stroke-linecap="round" stroke-linejoin="round" stroke-miterlimit="10" d="
				M339.585,43.417c1.711,0.023,13.739,5.529,19.516,6.998s13.864,3.549,14.811,2.019c0.945-1.531-2.092-5.079-2.092-5.079"/>
			<path fill="none" stroke="#000000" stroke-width="2" stroke-linecap="round" stroke-linejoin="round" stroke-miterlimit="10" d="
				M401.764,96.437c0,0,18.782,8.241,24.26,10.46"/>
			<path fill="none" stroke="#000000" stroke-width="2" stroke-linecap="round" stroke-linejoin="round" stroke-miterlimit="10" d="
				M445.855,90.351c0.516,0.427,12.526,3.443,15.639,6.242c3.108,2.799,7.871,6.651,7.871,6.651"/>
			<path fill="none" stroke="#000000" stroke-width="2" stroke-linecap="round" stroke-linejoin="round" stroke-miterlimit="10" d="
				M419.372,69.477c2.625,3.217,21.159,6.877,28.08,9.507c5.005,1.901,20.75,2.209,22.663,3.932
				c1.918,1.723,8.387,7.734,8.387,7.734"/>
		</g>
		<g id="Leader">
			<path fill="#FFFFFF" d="M75.779,210.201c-1.284,1.778-10.976,7.199-10.976,7.199l-16.645,6.238l-14.291-4.36l-7.928-6.303
				l-7.896-12.036l-5.299-12.498l-1.27-5.207l-8.717,8.963l0.911-10.492c0,0,1.024-15.134,1.131-15.066
				c0.103,0.064,3.052-7.732,3.18-8.091c0.125-0.359,2.842-6.356,2.646-6.865c-0.195-0.508,4.396-8.934,4.386-9.24
				c-0.007-0.306,5.441-7.017,5.488-7.327c0.05-0.306,10.076-8.756,10.076-8.756l8.134-6.025l8.874-2.771
				c0,0,8.401-0.249,8.629-0.231c0.228,0.018,3.404-3.159,4.407-2.98c1.006,0.181,5.872-1.754,5.872-1.754l0.64,2.913l-0.754,3.923
				l-4.083,4.894l-5.083,4.158l-4.88,5.157l-4.165,5.545l-5.694,5.997l-2.724,2.106l5.26,1.561l4.133,0.868l7.786,1.764l8.205,2.109
				l3.728,2.159l8.095,6.616l3.621,5.125l3.24,5.997l3.055,10.681l0.871,5.733c0,0-2.031,8.294-4.688,12.438
				C80.396,206.487,75.779,210.201,75.779,210.201z"/>
			
				<polyline fill="none" stroke="#000000" stroke-width="2" stroke-linecap="round" stroke-linejoin="round" stroke-miterlimit="10" points="
				53.375,334.087 43.264,286.755 61.662,241.172 			"/>
			
				<path fill="#FFFFFF" stroke="#000000" stroke-width="2" stroke-linecap="round" stroke-linejoin="round" stroke-miterlimit="10" d="
				M53.009,334.464c0,0-6.736,7.754-3.485,12.278c3.254,4.523,10.83,2.61,12.708-5.922C64.105,332.287,57.241,331.05,53.009,334.464
				z"/>
			
				<path fill="#FFFFFF" stroke="#000000" stroke-width="2" stroke-linecap="round" stroke-linejoin="round" stroke-miterlimit="10" d="
				M61.645,240.397c0,0,18.602-17.502,25.587-28.625c6.989-11.118,21.265-33.362,21.265-33.362s-4.101,39.28-0.612,56.185
				c3.493,16.905,5.688,30.815,5.688,30.815s-22.994-8.486-28.244-11.688C80.079,250.526,61.645,240.397,61.645,240.397z"/>
			<path fill="none" stroke="#000000" stroke-width="2" stroke-linecap="round" stroke-linejoin="round" stroke-miterlimit="10" d="
				M114.33,266.065c0,0,25.313,8.963,32.018,9.998c6.708,1.035,17.044,1.486,17.044,1.486s-12.346,26.316-14.825,35.799
				c-2.476,9.481-15.955,38.686-15.955,38.686"/>
			
				<path fill="#FFFFFF" stroke="#000000" stroke-width="2" stroke-linecap="round" stroke-linejoin="round" stroke-miterlimit="10" d="
				M131.413,356.146c-0.207,1.124,13.135,14.22,15.34,13.704c2.209-0.512,5.467-8.458-1.209-13.23
				C138.867,351.846,131.857,353.688,131.413,356.146z"/>
			<path fill="none" stroke="#000000" stroke-width="2" stroke-linecap="round" stroke-linejoin="round" stroke-miterlimit="10" d="
				M114.287,264.443c0,0,27.059-10.691,32.654-14.372c5.591-3.682,26.042-15.902,26.042-15.902s24.904,9.518,32.142,13.936
				c7.234,4.414,27.962,13.135,27.962,13.135"/>
			
				<path fill="#FFFFFF" stroke="#000000" stroke-width="2" stroke-linecap="round" stroke-linejoin="round" stroke-miterlimit="10" d="
				M234.098,260.756c0,0,3.187-6.459,2.236-9.967c-0.949-3.503-4.402-7.109-5.701-6.732c-1.302,0.377-4.467,3.344-2.735,8.458
				C229.63,257.633,232.497,260.457,234.098,260.756z"/>
			<path fill="none" stroke="#000000" stroke-width="2" stroke-linecap="round" stroke-linejoin="round" stroke-miterlimit="10" d="
				M108.877,177.714c0,0,32.778-14.01,37.448-15.347c4.667-1.341,13.854-4.172,13.854-4.172s12.722-12.335,17.424-18.079
				c4.702-5.744,13.936-12.321,13.936-12.321"/>
			
				<path fill="#FFFFFF" stroke="#000000" stroke-width="2" stroke-linecap="round" stroke-linejoin="round" stroke-miterlimit="10" d="
				M193.687,128.6c0,0,6.914,3.151,9.609-3.902c2.696-7.053,0.406-13.064-0.978-13.786c-1.388-0.726-8.166,1.131-10.425,7.416
				C189.632,124.609,191.759,128.041,193.687,128.6z"/>
			<path fill="none" stroke="#000000" stroke-width="2" stroke-linecap="round" stroke-linejoin="round" stroke-miterlimit="10" d="
				M67.335,216.375c0,0-16.83,6.868-18.793,7.224c-1.967,0.355-14.152-1.288-22.603-10.624
				c-8.451-9.336-14.394-27.095-14.447-29.062"/>
			<path fill="none" stroke="#000000" stroke-width="2" stroke-linecap="round" stroke-linejoin="round" stroke-miterlimit="10" d="
				M48.499,148.759c0,0,14.863-0.398,27.934,11.392s12.185,29.73,12.185,29.73"/>
			<path fill="none" stroke="#000000" stroke-width="2" stroke-linecap="round" stroke-linejoin="round" stroke-miterlimit="10" d="
				M35.325,189.497c0,0-4.236-5.054-0.245-9.109c3.991-4.051,10.734-1.65,10.734-1.65"/>
			<path fill="none" stroke="#000000" stroke-width="2" stroke-linecap="round" stroke-linejoin="round" stroke-miterlimit="10" d="
				M49.114,171.664c0,0-0.854-3.468,2.387-7.199c3.24-3.731,9.429,0.658,9.429,0.658"/>
			<path fill="none" stroke="#000000" stroke-width="2" stroke-linecap="round" stroke-linejoin="round" stroke-miterlimit="10" d="
				M54.154,200.978c0,0,6.182-1.686,8.782-6.612c2.6-4.926,3.848-9.212,3.848-9.212s8.874,12.359,2.725,18.598
				C63.355,209.991,53.962,205.232,54.154,200.978z"/>
			<path fill="none" stroke="#000000" stroke-width="2" stroke-linecap="round" stroke-linejoin="round" stroke-miterlimit="10" d="
				M2.742,191.588c0,0,27.066-32.305,32.49-39.284c5.428-6.975,19.452-21.774,21.674-23.809c2.223-2.034,8.91-7.227,9.468-9.063
				c0.558-1.835,2.326-5.523,0.679-6.697c-1.65-1.17-9.991,4.67-9.991,4.67s-9.749-1.103-14.376,1.757
				c-4.627,2.856-14.134,4.933-26.981,23.954c-12.85,19.018-11.424,38.103-11.424,38.103"/>
			<path fill="none" stroke="#000000" stroke-width="2" stroke-linecap="round" stroke-linejoin="round" stroke-miterlimit="10" d="
				M11.292,176.479c0,0-0.708-3.521-1.434-8.031c-0.726-4.51-1.156-9.052-1.156-9.052"/>
			<path fill="none" stroke="#000000" stroke-width="2" stroke-linecap="round" stroke-linejoin="round" stroke-miterlimit="10" d="
				M20.124,166.222c0,0-1.191-4.67-2.354-8.437c-1.163-3.763-1.504-10.738-1.504-10.738"/>
			<path fill="none" stroke="#000000" stroke-width="2" stroke-linecap="round" stroke-linejoin="round" stroke-miterlimit="10" d="
				M27.447,156.388c0,0-2.564-5.019-3.119-8.646c-0.551-3.631-0.292-10.923-0.292-10.923"/>
			<path fill="none" stroke="#000000" stroke-width="2" stroke-linecap="round" stroke-linejoin="round" stroke-miterlimit="10" d="
				M34.471,146.557c-0.349-1.661-2.742-5.997-2.354-8.437c0.391-2.443-0.526-8.333-0.238-8.949"/>
			<path fill="none" stroke="#000000" stroke-width="2" stroke-linecap="round" stroke-linejoin="round" stroke-miterlimit="10" d="
				M44.668,136.261c-0.647-1.348-2.746-5.993-2.632-7.366c0.117-1.369-0.178-6.37-0.178-6.37"/>
			<path fill="none" stroke="#000000" stroke-width="2" stroke-linecap="round" stroke-linejoin="round" stroke-miterlimit="10" d="
				M57.163,126.817c-0.043-1.668-1.501-6.196-0.946-6.957"/>
			<path fill="none" stroke="#000000" stroke-width="2" stroke-linecap="round" stroke-linejoin="round" stroke-miterlimit="10" d="
				M6.285,170.999c1.519-0.042,5.587-1.212,8.013-1.277c2.426-0.064,5.324,0.388,5.324,0.388"/>
			<path fill="none" stroke="#000000" stroke-width="2" stroke-linecap="round" stroke-linejoin="round" stroke-miterlimit="10" d="
				M9.855,162.705c1.355-0.491,6.118-2.622,8.646-2.447c2.525,0.174,7.529,0.893,7.529,0.893"/>
			<path fill="none" stroke="#000000" stroke-width="2" stroke-linecap="round" stroke-linejoin="round" stroke-miterlimit="10" d="
				M12.996,149.715c2.575-0.374,7.686-2.184,11.332-1.974c3.649,0.206,10.883-0.491,12.16,0.487"/>
			<path fill="none" stroke="#000000" stroke-width="2" stroke-linecap="round" stroke-linejoin="round" stroke-miterlimit="10" d="
				M20.583,138.203c2.091-1.195,8.703-1.071,12.52-1.629c3.816-0.559,13.434-1.647,15.034-1.163"/>
			<path fill="none" stroke="#000000" stroke-width="2" stroke-linecap="round" stroke-linejoin="round" stroke-miterlimit="10" d="
				M32.142,125.178c2.653-0.338,9.813,0.687,12.996,0.448c3.18-0.238,10.219,1.238,11.122,1.213"/>
		</g>
	</g>
</g>
<g id="Layer_0_xA0_Bild" display="none">
	<g id="e._V." display="inline">
		<path d="M281.353,460.054c-0.865-0.593-3.447,1.067-4.889,2.108c-1.444,1.04-3.079,1.249-3.919,0.8
			c-0.838-0.447-1.326-1.65-1.296-1.854c0.031-0.204,1.489-0.066,3.552-2.102c2.066-2.035,2.747-5.699,0.377-7.168
			c-2.371-1.465-4.654-0.521-6.504,1.528c-1.847,2.05-2.459,6.119-1.646,9.309c0.812,3.19,3.701,6.087,6.654,5.808
			c2.955-0.281,5.124-1.349,6.758-4.079C282.072,461.672,282.224,460.646,281.353,460.054z M271.194,455.834
			c0.446-1.007,1.383-2.035,2.219-1.604c0.834,0.435,0.721,1.227-0.19,2.75c-0.912,1.525-2.35,1.935-2.468,1.783
			C270.639,458.616,270.751,456.844,271.194,455.834z"/>
		<path d="M286.333,459.649c0.915-0.371,2.604,0.375,2.877,1.321c0.271,0.949-0.529,2.25-1.471,2.594
			c-0.941,0.342-2.325-0.03-2.722-1.248C284.62,461.096,285.417,460.021,286.333,459.649z"/>
		<path d="M312.137,453.376c0.309,0.947,1.173,1.991,2.416,1.512s1.801-1.612,1.464-3.026c-0.336-1.415-1.229-1.549-2.359-1.181
			C312.528,451.048,311.827,452.427,312.137,453.376z"/>
		<path d="M289.648,434.851c0.986-0.389,1.993-0.512,2.916,0.095c0.927,0.608,2.341,1.268,3.622,4.139
			c2.357,5.276,3.866,14.376,3.815,15.894c-0.053,1.517-0.001,3.483,1.231,3.919c1.234,0.438,2.412,0.006,3.637-1.598
			c1.229-1.604,5.974-9.055,6.901-20.718c0.431-5.427,0.111-9.309-0.728-11.882c-0.964-2.961-2.232-4.204-3.071-4.683
			c-0.835-0.477-2.156,0.477-1.846,1.376c0.31,0.897,1.281,3.376,1.814,5.362c0.534,1.985,0.548,9.354-1.026,15.335
			c-1.574,5.978-2.691,8.091-3.074,8.17c-0.384,0.081-0.077-7.279-3.669-13.564c-3.597-6.283-8.285-6.623-10.503-5.266
			C287.453,432.788,288.664,435.241,289.648,434.851z"/>
	</g>
	<g id="Aachen" display="inline">
		<path d="M234.912,411.188l-1.932,1.444c-0.511-1.877-1.078-3.898-1.703-6.052c-2.404-8.3-5.012-12.727-6.234-15.433
			c-1.215-2.704-4.39-0.883-4.042,1.098c0.317,1.824-2.645,13.816-3.698,18.839c-2.55,0.46-4.377,1.872-4.894,3.288
			c-0.335,0.917-0.517,3.029,0.24,4.407c0.436,0.797,1.118,1.502,2.03,2.109c-0.658,1.929-1.4,3.862-2.192,5.459
			c-1.987,4.01-4.335,5.426-5.123,5.63c-1.688,0.438-1.692-2.467-3.085-2.095c-1.39,0.375-0.871,2.226-0.555,3.319
			c0.321,1.092,1.749,2.831,3.771,2.734c2.023-0.099,4.013-1.683,4.873-2.712c0.641-0.764,3.56-4.444,5.881-10.786
			c0.991,0.279,2.097,0.503,3.31,0.665c2.178,0.297,4.796-0.484,7.107-1.674c0.566,0.49,1.272,1.147,1.878,1.819c0,0,0,0,0,0.002
			c0.301,1.147,0.556,2.115,0.778,2.864c0.302,1.011,1.28,2.002,2.223,2.189c1.57,0.31,3.207-0.962,2.623-3.32
			c-0.484-1.969-1.141-4.637-2.002-7.917c1.61-2.001,2.118-3.748,2.271-4.169C236.815,411.878,235.744,410.994,234.912,411.188z
			 M224.44,417.143c-0.094,0.703-2.728,0.841-4.731,0.536c0.186-0.727,0.357-1.478,0.515-2.252
			C222.106,415.89,224.515,416.596,224.44,417.143z M227.257,411.219c0.267,0.887,0.522,1.756,0.764,2.596
			c-1.003-0.506-2.495-1.187-4.696-2.048c-0.752-0.292-1.486-0.503-2.198-0.639c0.167-0.802,0.346-1.686,0.524-2.608
			c0.813-4.186,1.684-9.033,1.774-9.063C223.595,399.402,225.21,404.479,227.257,411.219z"/>
		<path d="M250.879,406.693c0.171,1.29-0.314,2.246-1.303,1.895c-0.986-0.352-3.996,0.431-2.921,5.413
			c0.537,2.492,2.172,3.455,3.65,1.95c1.479-1.502,1.714-3.997,1.567-5.594c-0.292-3.194-0.342-2.656-0.552-4.98
			c-0.207-2.322,3.164-3.099,3.87-1.236c0.707,1.863,1.379,5.333,2.148,6.628c0.771,1.294,1.502,1.854,2.313,1.964
			c0.807,0.111,2.659-1.316,3.165,0.388c0.507,1.704-1.065,3.922-3.159,4.997c-2.091,1.077-3.985-1.323-4.285-1.226
			s-1.113,4.227-5.138,5.188s-8.244-1.277-8.621-7.186c-0.379-5.907,2.253-8.458,4.371-9.448
			C248.105,404.455,250.707,405.402,250.879,406.693z"/>
		<path d="M274.72,399.472c1.055,0.029,2.145-1.335,0.759-2.716c-1.384-1.38-3.705-2.193-6.156-0.536
			c-2.449,1.658-5.228,8.432-3.442,13.457c1.788,5.026,5.784,5.893,9.788,4.639c4.003-1.254,5.961-6.365,6.153-8.188
			c0.193-1.818-1.496-1.605-2.162-0.789c-0.671,0.815-3.896,3.387-6.034,3.935c-2.138,0.547-3.604-1.617-3.108-5.144
			c0.495-3.525,1.376-4.263,2.088-4.494C273.314,399.406,274.72,399.472,274.72,399.472z"/>
		<path d="M285.885,386.267c1.432,3.171,2.221,7.547,2.518,7.848c0.296,0.303,1.986-4.61,5.228-5.066
			c3.239-0.458,5.155,2.134,5.782,3.673c0.625,1.541,1.427,4.147,1.684,5.634c0.26,1.483,0.737,2.874,0.994,2.891
			c0.253,0.017,1.855-0.729,2.042,1.377c0.189,2.107-1.068,2.991-2.052,3.335c-0.493,0.174-1.87,0.142-2.978-0.798
			c-1.112-0.943-1.958-2.799-2.316-4.355c-0.713-3.107-0.765-4.262-1.249-5.748c-0.485-1.487-1.092-2.374-2.181-1.108
			c-1.09,1.265-2.177,3.189-2.438,5.446c-0.522,4.515,0.173,6.506,0.233,7.907c0.058,1.401-2.949,3.116-3.906,1.023
			c-0.954-2.094-2.103-9.331-3.235-14.034c-1.135-4.705-3.869-11.602-4.527-14.39c-0.66-2.789,1.65-3.132,2.552-1.444
			C282.94,380.144,284.452,383.094,285.885,386.267z"/>
		<path d="M323.412,392.04c-0.101-0.222-0.576-0.374-1.218-0.226c-0.959,0.224-2.067,0.891-2.52,1.219
			c-0.755,0.546-2.144,2.445-4.592,2.816c-2.444,0.373-4.36-1.381-4.339-1.651c0.026-0.271,3.453-0.923,4.747-2.069
			c1.295-1.146,3.042-3.52,1.951-6.641c-1.094-3.122-4.143-4.146-7.004-3.244c-2.858,0.898-3.854,4.075-4.063,5.379
			c-0.213,1.304-1.044,5.15,0.057,8.155c1.105,3.004,3.297,4.285,4.5,4.766c1.201,0.479,3.598,1.302,6.87,0.372
			c3.273-0.933,4.11-2.58,5.188-4.6C324.06,394.295,323.668,392.594,323.412,392.04z M310.66,387.699
			c0.359-1.764,1.908-2.021,2.739-1.768c0.83,0.254,1.83,1.722,0.529,3.118c-1.302,1.396-3.421,2.011-3.618,1.737
			C310.311,390.787,310.298,389.461,310.66,387.699z"/>
		<path d="M324.907,379.795c0.182,0.938,1.826,5.984,2.678,8.598c0.851,2.614,1.251,5.225,1.789,6.794
			c0.534,1.57,3.927,1.038,3.544-1.205c-0.382-2.244-1.406-10.282,0.854-12.989c2.258-2.704,2.977-2.414,3.282-2.315
			c0.306,0.1,2.615,7.647,3.53,9.842s3.38,3.412,5.152,2.733s3.827-3.018,3.666-5.656c-0.163-2.638-2.121-2.15-3.121-1.699
			c-1,0.45-1.663,1.937-2.064,1.768c-0.404-0.167-2.436-6.782-3.232-8.766c-0.795-1.983-2.388-2.662-3.885-2.673
			c-1.497-0.008-4.13,1.098-5.93,3.528c-1.799,2.43-1.521,3.005-2,3.063c-0.48,0.058-1.148-2.784-2.542-2.779
			C325.233,378.042,324.728,378.856,324.907,379.795z"/>
	</g>
	<g id="Swingin" display="inline">
		<path d="M190.69,349.245c1.171-0.381,0.522-1.915,0.185-3.101c-0.335-1.186-2.14-2.743-4.478-2.729
			c-2.337,0.013-5.162,0.984-7.609,3.726c-2.446,2.741-3.019,5.42-3.335,7.966c-0.317,2.547,1.429,6.089,5.206,5.88
			c3.776-0.21,11.27-1.861,15.696,3.923c4.427,5.785,2.237,10.272-0.312,12.698c-2.549,2.425-7.443,5.765-12.395,4.337
			c-4.951-1.429-4.958-6.958-4.889-8.427c0.07-1.468,1.996-4.737,1.069-5.133c-0.927-0.396-3.464,2.523-4.565,5.874
			c-1.102,3.349-0.686,10.44,5.911,12.33c6.595,1.888,18.768-2.068,22.175-9.813c3.407-7.744,0.331-13.818-5.662-18.597
			c-5.993-4.777-16.723-2.526-17.048-3.217c-0.325-0.691-0.121-6.641,4.643-8.392C188.842,345.262,189.518,349.628,190.69,349.245z"
			/>
		<path d="M210.357,358.626c0.771-0.281,1.943,1.909,1.937,2.696c-0.006,0.786,0.961,11.586,3.862,10.704
			c2.902-0.881,1.006-9.264,1.206-9.988s1.986-1.855,2.945-0.636c0.96,1.221,1.49,4.227,2.161,4.679
			c0.67,0.455,3.116,2.043,3.669,1.938c0.55-0.105,1.016-3.164,1.157-4.219c0.143-1.056-0.706-3.771-1.377-4.226
			c-0.673-0.455-2.45-1.594-2.454-2.142c-0.005-0.547,0.516-1.899,0.876-2.054c0.36-0.156,2.315-0.543,2.912-0.775
			c0.597-0.231,2.315-1.19,2.632-1.256c0.314-0.065,1.245-0.345,1.196,0.308c-0.049,0.651-0.727,1.633-1.438,2.089
			c-0.709,0.456-1.277,1.015-1.277,1.015s2.101,1.856,2.619,5.052c0.519,3.197,0.133,9.853-3.659,10.687
			c-3.788,0.838-5.83-1.949-6.415-1.796c-0.587,0.154-1.12,4.328-4.06,5.062c-2.938,0.734-5.549-2.303-6.642-6.922
			C209.116,364.226,209.353,358.99,210.357,358.626z"/>
		<g>
			<path d="M240.598,343.428c1.501-0.442,1.676-1.911,1.415-3.172c-0.263-1.261-1.854-1.846-2.878-1.435
				c-1.026,0.408-1.475,1.782-1.196,2.872C238.219,342.781,239.403,343.778,240.598,343.428z"/>
			<path d="M241.057,349.234c1.719-0.496,2.444,0.237,2.566,2.218c0.12,1.979,1.614,7.599,2.016,8.252
				c0.211,0.344,0.889,1.126,1.926,0.942c0.944-0.166,2.239-1.271,2.723-1.481c1.016-0.441,2.164,0.874,1.537,2.162
				c-0.626,1.288-1.886,3.883-4.916,4.643c-3.031,0.761-4.574-1.836-4.844-1.749c-0.272,0.089-0.996,2.068-2.258,2.443
				c-1.261,0.375-2.475-0.676-2.403-1.373s1.358-2.14,1.572-3.204c0.214-1.065,1.039-5.759,0.979-6.523
				C239.891,354.8,239.337,349.733,241.057,349.234z"/>
		</g>
		<path d="M256.742,343.583c1.614-0.6,3.014,0.602,3.236,0.939c0.223,0.341,0.386,1.072,0.726,0.961
			c0.336-0.109,2.1-3.302,4.928-4.148s3.53,0.32,4.54,1.313c1.009,0.993,3.228,10.251,3.431,10.185
			c0.099-0.031,0.447-0.718,1.108-1.22c0.697-0.531,1.72-0.88,2.3-0.827c1.131,0.106,1.124,2.228,0.613,4.064
			c-0.268,0.962-1.239,2.022-2.426,2.459c-1.078,0.397-2.355,0.231-3.065-0.035c-0.479-0.18-2.256-1.564-2.922-4.494
			s-1.978-8.101-2.106-8.187c-0.189-0.125-2.455,0.303-3.332,4.501c-0.875,4.198,0.258,7.256,0.248,8.717
			c-0.009,1.462-0.495,2.416-1.712,2.702c-1.215,0.284-2.119-0.232-2.439-1.374c-0.322-1.143-0.707-3.583-0.87-4.541
			c-0.162-0.955-1.546-5.552-1.784-5.475c-0.234,0.077-1.026,1.283-1.104,3.688c-0.076,2.404-3.002,1.8-3.499-0.033
			c-0.496-1.83-0.326-3.717,0.858-5.937C254.654,344.626,255.132,344.183,256.742,343.583z"/>
		<path d="M300.188,343.609c-1.228-1.021-4.29,2.792-4.29,2.792s-0.594-0.977-0.913-2.418c-0.321-1.442-1.635-9.246-2.23-10.902
			c-0.595-1.654-4.095-1.093-4.069,1.665c0.05,1.449,0.45,2.371,0.91,4.862c0.655,2.306,0.35,2.648,0.316,3.262
			c-0.109,2.105-1.356,3.234-2.119,3.434c-1.817,0.466-2.291-2.896-2.441-4.889c-0.152-1.996,0.587-3.481,1.224-3.737
			c0.639-0.26,0.784,0.415,1.364,0.203c0.576-0.215,0.356-2.035-0.051-2.601c-0.409-0.567-1.605-1.298-3.293-0.623
			c-1.688,0.677-3.293,3.205-3.675,6.731c-0.385,3.524,0.409,7.268,2.914,9.292c2.505,2.025,6.866,0.192,6.866,0.192
			s-1.333,1.369-2.685,2.882c-1.354,1.512-3.284,3.213-3.983,4.188c-1.669,2.329-2.315,5.815-1.311,8.676
			c1.008,2.862,4.097,5.768,9.295,4.126c5.197-1.644,6.105-6.179,6.763-9.308c0.654-3.126-1.766-11.611-1.766-11.611
			S301.419,344.629,300.188,343.609z M294.218,359.532c0.297,1.598-0.096,4.67-1.038,5.45c-0.942,0.779-2.053,1.041-3.05,1.194
			c-0.999,0.149-3.384-1.964-2.312-4.031c1.072-2.069,4.992-7.708,5.313-7.713C293.452,354.428,293.921,357.933,294.218,359.532z"/>
		<g>
			<path d="M303.693,319.352c1.262-0.41,2.324-0.208,2.842,1.691c0.521,1.899-0.626,3.271-1.739,3.684
				c-1.113,0.411-2.755-0.576-3.029-1.879S302.432,319.764,303.693,319.352z"/>
			<path d="M303.698,345.07c-0.306,1.146,1.539,1.894,2.376,1.096c0.836-0.795,1.323-2.998,1.52-3.062
				c0.194-0.063,1.096,0.914,2.432,1.575c1.338,0.66,4.977-0.889,6.033-2.364c1.87-2.604,1.179-5.867-0.044-5.794
				c-1.221,0.076-4.239,3.201-4.529,3.073c-0.293-0.131-0.839-2.023-1.434-4.243c-0.682-2.547-1.017-4.653-1.888-5.792
				c-0.868-1.137-3.801-0.405-3.757,1.522c0.048,1.93,0.152,5.002,0.12,7.047C304.497,340.176,303.99,343.979,303.698,345.07z"/>
		</g>
		<path d="M320.626,330.358c0.907-0.347,1.703-5.023,2.736-4.909c1.034,0.111,1.378,4.229,1.461,5.093
			c0.083,0.862-0.133,7.326,1.149,8.203c1.284,0.878,2.518,0.603,3.391-0.544c0.872-1.143,0.207-2.437,0.591-7.146
			c0.385-4.71,2.428-8.218,3.415-7.789c0.465,0.2,0.23,1.671,0.394,3.733c0.185,2.317,0.767,5.304,1.432,6.537
			c1.26,2.331,3.756,3.038,6.003,2.205c0.454-0.167,2.188-1.24,2.478-2.8c0.24-1.295,0.135-3.088-0.243-4.032
			c-0.226-0.567-0.719-0.657-0.827-0.629c-0.969,0.241-2.359,2.164-2.825,2.117c-0.464-0.049-1.188-6.939-1.903-8.751
			c-0.714-1.811-2.5-3.696-5.593-2.863c-3.092,0.834-4.864,4.576-5.166,4.724c-0.301,0.147-1.148-2.994-3.61-2.215
			c-2.463,0.779-4.786,3.829-4.761,6.661C318.772,330.786,319.717,330.701,320.626,330.358z"/>
		<path d="M335.838,297.844c0.226-0.727,1.947-2.129,3.681-0.177c1.734,1.954,2.549,4.379,2.27,5.966
			c-0.281,1.586-1.261,2.767-2.567,2.045C337.914,304.957,335.614,298.571,335.838,297.844z"/>
	</g>
</g>
<g id="Ebene_1">
	<g>
		<g id="Aachen_1_">
			<path d="M257.387,401.812c-0.909,0.33-8.036,3.397-9.082,3.825c-1.382-5.994-1.865-13.628-4.962-18.99
				c-1.112-1.928-3.235-0.646-3.538,1.596c-1.079,7.974-5.681,22.984-5.896,23.688c-1.625,0.607-3.34,1.031-5.274,1.09
				c-3.034,0.094-2.532,4.372,0.016,4.95c1.033,0.235,2.033,0.293,3.007,0.229c-1.811,4.34-4.086,8.444-6.966,12.29
				c-2.462,3.284-5.539,5.747-9.094,7.749c-3.636,2.047-5.966,0.777-7.193-2.988c-0.926-2.842-1.142-5.903-0.333-8.786
				c0.283-1.016,0.683-1.985,1.126-2.939c0.878-1.883,0.924,0.214,1.531,1.25c0.413,0.702,1.622,0.743,1.717-0.239
				c0.259-2.689,0.325-6.666-3.367-6.816c-3.477-0.143-5.215,3.969-6.163,6.666c-2.453,6.991-2.142,19.823,7.298,20.643
				c11.847,1.029,19.703-12.24,22.907-20.533c0.866-2.24,1.311-4.836,2.087-7.071c1.316-0.467,2.594-1.1,3.857-1.775
				c0.08,0.047,4.997-2.418,5.557-2.638c0.87,3.576,0.706,16.246,0.724,16.872c0.085,2.971,5.201,1.524,5.261-1.44
				c0.029-1.505-0.232-8.642-0.421-10.879c-0.22-2.633-0.438-4.977-0.922-7.545c1.184-0.761,2.373-1.54,3.664-2.295
				c0.969-0.565,4.662-4.18,4.788-4.42C257.842,403.063,258.311,401.473,257.387,401.812 M243.445,408.284
				c-0.021,0.008-3.858,1.626-5.75,2.591c0.067-0.223-0.199-0.27-0.072-0.768c0.769-3.022,2.828-10.679,3.486-13.103
				C241.117,397.051,243.341,407.878,243.445,408.284"/>
			<path d="M340.219,401.26c-3.839,2.855-8.035,6.466-12.178,6.003c-4.143-0.462-7.668-2.614-9.267-6.363
				c-2.629-6.173-0.172-15.069,0.036-21.543c0.059-1.824-2.484-3.599-4.13-2.026c-3.61,3.45-6.145,6.886-8.68,10.882
				c0.001-0.235,0.257-3.344,0.585-7.271c0.393-4.744,0.89-10.687,1.163-14.211c0.189-2.439-2.53-3.04-3.076-0.74
				c-0.881,3.717-2.442,9.501-3.121,15.057c-0.262,2.133-0.319,4.384-0.789,8.179c-0.469,3.796-3.744,10.285-5.51,12.806
				c-3.631,5.186-7.964,8.665-9.932,7.492c-1.967-1.173-1.447-6.481-0.731-8.495c0.561-1.575,1.749-3.72,2.938-4.091
				c4.001-1.252,1.29-6.457-2.814-3.884c-2.649,1.661-5.914,7.983-6.358,12.747c-0.445,4.763,1.878,6.277,1.345,6.861
				c-1.163,1.275-4.588,1.945-5.218,1.895c-0.92-0.077-2.008-0.547-1.953-1.739c0.055-1.189-0.326-7.397-0.321-8.221
				c0.012-2.591-3.722-2.514-4.235,0.122c-0.146,0.746-0.36,1.855-0.461,2.663c-1.009,4.757-5.573,13.596-7.769,12.554
				c-2.196-1.044,1.521-9.834,2.81-11.038c1.286-1.203,2.39-0.206,4.08-0.604c0.359-0.085,0.674-0.385,0.602-0.787
				c-0.575-3.234-3.696-4.08-7.138-2.29c-3.439,1.791-6.604,8.604-6.708,12.333c-0.015,0.535-0.248,7.828,4.521,8.675
				c4.91,0.872,8.458-3.929,10.977-9.199c1.268,1.715,3.669,2.227,5.526,2.092c1.855-0.138,6.325-1.633,7.61-4.173
				c6.925,3.221,11.563-3.2,14.598-6.955c1.512-1.869,4.201-8.737,4.208-8.641c0.142,1.882-0.112,6.988-0.126,9.128
				c-0.015,2.142,3.972,1.365,4.577-1.512c0.333-1.582,0.381-2.584,0.429-3.578c0.37-7.898,3.872-13.565,6.67-17.088
				c-1.233,7.265-2.093,16.292,3.115,21.603c7.396,7.541,20.628,6.449,25.806-5.092C341.827,401.627,341.186,400.541,340.219,401.26
				"/>
			<path d="M376.122,372.485c-1.428,0.411-1.277,1.882-4.773,2.851c-3.495,0.972-6.417,0.989-8.2-1.088
				c-1.782-2.079-2.049-5.978-1.439-9.393c0.488-2.746,1.054-4.57-1.406-4.84c-2.182-0.242-4.016,0.467-6.512,2.557
				c-2.497,2.089-5.57,7.305-5.731,7.502c-0.023-0.302-0.095-0.976-0.127-1.275c-0.269-2.578-2.66-1.398-2.969,0.86
				c-0.309,2.257-0.213,2.76-0.521,5.859c-1.151,2.152-8.102,10.95-9.209,12.074c-1.519,1.538-5.571,5.416-7.264,4.813
				c-1.069-0.379-0.929-1.896-1.096-3.385c2.05-0.733,4.266-3.638,4.512-4.391c0.306-0.896,3.419-7.777,0.207-11.579
				c-2.042-2.416-5.345-0.39-6.823,1.157c-2.673,2.798-4.154,8.275-4.452,11.983c-0.27,3.375,0.478,8.131,3.429,10.3
				c5.365,3.945,11.067-1.688,14.415-5.599c2.412-2.817,5.843-10.268,6.185-10.95c0.057,0.344-0.073,6.231-0.146,7.421
				c-0.267,4.452,6.167,2.57,5.494-1.021c0.155-2.099-0.348-9.451,1.456-13.42c1.805-3.968,5.952-8.771,6.58-8.517
				c-2.947,6.112-1.289,12.29,0.255,13.97c1.543,1.678,4.802,3.848,11.771,1.992c6.967-1.857,7.744-5.206,7.884-5.531
				c0.011-0.025,0.021-0.052,0.031-0.076C378.249,373.41,377.327,371.684,376.122,372.485 M328.645,377.093
				c1.121-1.339-0.34,3.324-0.429,3.6c-0.491,0.953-1.107,2.466-1.877,3.152c0.175-1.051,0.31-2.05,0.531-3.006
				C327.178,379.517,327.654,378.275,328.645,377.093"/>
		</g>
		<g id="e._V._1_">
			<path d="M267.861,460.018c-2.11,1.928-5.515,4.547-7.494,5.274c-0.864,0.315-2.049,0.83-2.687,0.437
				c-0.816-0.503-0.979-2.031-1.034-2.384c0.919-0.452,2.302-1.59,3.553-3.269c1.251-1.681,2.27-6.678,1.202-8.773
				c-1.017-1.999-3.391-2.01-4.901-1.129c-2.146,1.255-3.61,3.886-4.129,6.251c-0.953,4.346-1.801,14.691,5.113,14.521
				c3.136-0.077,5.814-2.313,8.194-4.688c1.678-1.673,3.183-3.399,3.937-5.369C270.079,459.678,268.833,459.129,267.861,460.018
				 M257.121,455.731c0.423-1.147,1.147-2.601,1.504-2.604c0.354-0.007,0.578,1.446-0.056,3.493
				c-0.635,2.051-1.868,3.161-2.26,3.064C255.919,459.588,256.7,456.877,257.121,455.731"/>
			<path d="M276.957,458.819c-0.524-0.144-0.252-0.652-1.394-0.167c-1.164,0.495-1.446,1.859-0.725,2.783
				c0.721,0.928,1.727,1.162,2.513,0.944c0.785-0.217,1.159-1.778,1.002-2.334C278.005,458.816,277.478,458.964,276.957,458.819"/>
			<path d="M309.329,412.05c-2.048,0.582-11.812,6.724-16.657,14.263c-4.841,7.54-5.645,17.822-5.699,18.416
				c-1.581-4.933-3.655-9.256-6.302-13.74c-1.301-2.207-6.252-6.754-9.819-3.225c-3.568,3.526-2.663,6.625-2.212,7.65
				c0.206,0.459,1.042,0.427,1.045-0.145c0.01-0.764-0.626-3.544,2.606-5.233c3.234-1.688,11.577,15.846,13.522,26.807
				c0.441,2.479,4.635,2.024,5.094-0.001c0.788-3.506,0.241-7.304,0.185-10.879c-0.064-3.886,0.318-7.769,2.803-15.352
				c2.488-7.583,14.646-16.259,16.058-17.38C310.771,412.585,310.789,411.638,309.329,412.05"/>
			<path d="M298.358,449.237c-0.404-0.19-0.931-0.295-1.372-0.185c-0.452,0.117-0.625,0.187-1.021,0.451
				c-0.231,0.157-0.363,0.383-0.53,0.588c-0.549,0.673-0.408,1.63,0.137,2.229c0.128,0.345,0.342,0.663,0.646,0.916
				c0.962,0.794,2.427,0.544,3.183-0.389C300.384,451.641,299.648,449.845,298.358,449.237"/>
		</g>
		<g id="Swingin_x27_">
			<path d="M189.069,350.392c-4.5-1.827-10.411,0.195-13.835,3.356c-5.614,5.183-13.009,20.866-0.049,22.485
				c5.824,0.726,13.328-1.034,18.613,2.606c4.917,3.386,5.461,8.392,1.053,12.705c-3.51,3.435-9.293,6.179-14.556,6.697
				c-5.261,0.518-15.113-2.362-12.861-9.304c0.917-2.824-1.741-2.578-3.461,0.664c-0.676,1.273-1.196,6.249,1.746,9.674
				c2.944,3.425,9.112,5.225,16.432,4.754c8.881-0.572,19.396-5.076,21.461-14.491c1.117-5.094-1.589-11.745-5.033-15.161
				c-4.265-4.23-11.495-4.888-17.29-4.762c-2.699,0.06-5.359,1.447-6.12-1.979c-0.652-2.925,1.897-6.914,3.522-9.01
				c2.179-2.814,4.644-4.053,8.206-3.835c2.823,0.172,2.808,3.826,5.382,4.297c0.131,0.026,0.263-0.045,0.343-0.146
				C194.94,356.052,191.992,351.577,189.069,350.392"/>
			<path d="M258.514,366.57c-0.549,0.052-3.017,5.428-7.168,3.764c-1.457-0.584-2.627-2.476-2.602-5.576
				c0.022-2.91-0.685-4.946-0.659-5.045c0.826-3.127-2.532-5.231-3.532-2.011c-0.531,3.621-2.58,6.013-4.724,8.035
				c-0.488,0.459-2.684,1.771-4.043,2.361c-0.064-1.913-0.401-3.786-1.38-4.916c-5.191-5.985-8.882,6.514-2.926,10.048
				c0.053,2.329-0.033,4.47-2.582,5.352c-1.781,0.615-3.465-1.374-4.102-3.879s-0.181-5.352-0.9-7.25
				c-0.831-2.191-3.989-1.534-4.334,0.601c-0.269,1.672-0.333,3.548-0.165,5.398c-0.269,1.453,0.089,2.804-0.607,4.674
				c-1.233,3.306-3.819,7.043-5.116,7.336c-2.031,0.459-1.898-4.809-2.102-5.986c-0.438-2.542-0.189-5.897,0.236-7.643
				c0.425-1.746-2.311-2.96-3.588-0.949c-2.638,4.153-3.405,21.304,5.02,19.968c4.443-0.706,6.862-4.248,8.9-8.89
				c1.817,1.682,5.42,2.993,8.971,1.345c3.8-1.762,4.354-5.333,4.507-9.155c2.793-0.378,5.59-2.87,7.906-5.16
				c0.452,1.72,1.313,3.306,2.777,4.619c1.521,1.361,4.224,2.043,8.35,0.2c4.319-1.93,5.328-5.77,5.322-5.77
				C260.037,367.289,259.455,366.482,258.514,366.57"/>
			<path d="M250.048,338.092c-1.552-0.247-3.715,0.188-4.271,1.273c-0.534,1.04-0.15,2.108-0.206,2.199
				c-0.117,0.186-2.893,0.951-3.243,3.501c-0.35,2.548,0.131,3.289,1.019,4.546c1.821,2.582,5.582,0.709,7.425-1.183
				c1.802-1.849,2.786-4.142,2.724-6.757C253.445,339.654,251.599,338.341,250.048,338.092 M249.08,344.532
				c-0.589,0.926-1.894,2.278-2.331,1.753c-0.434-0.524-0.619-1.876-0.103-3.037c0.517-1.16,1.063-2.058,2.028-1.675
				C249.64,341.955,249.671,343.604,249.08,344.532"/>
			<path d="M301.199,347.924c-1.215,1.549-1.344,1.001-2.34,2.197c-0.032-1.137-0.453-2.196-0.481-3.335
				c-0.027-1.109-0.951-6.11-1.198-7.372c-0.524-2.685-1.009-3.22-3.338-4.393c-1.145-0.575-2.782-0.418-3.739,0.001
				c-4.483,1.792-6.17,8.19-6.78,10.169c-0.61,1.979-0.228,7.482,2.685,9.386c2.579,1.687,5.719,0.03,7.611-2.024
				c-0.004,0.552,0.551,2.345-0.117,4.124c-0.737,1.965-2.728,3.94-3.226,4.817c-2.448,4.325-5.378,8.496-7.398,13.039
				c-1.384,3.11-2.765,6.5-1.813,9.937c0.918,3.313,4.991,5.364,8.233,3.955c7.438-3.235,9.581-18.473,9.891-22.612
				c0.311-4.141,0.576-7.195,0.478-10.128c1.72-2.873,2.786-6.098,3.106-7.361C303.092,347.061,302.39,346.404,301.199,347.924
				 M289.519,348.885c-0.438-1.917-0.26-4.047,0.324-6.089c0.539-1.889,1.424-3.702,2.486-5.205
				c0.134,0.192,0.104,4.645-0.191,6.772C291.841,346.493,289.641,349.089,289.519,348.885 M288.92,381.402
				c-2.603,3.887-2.585-0.216-2.25-2.432c0.416-2.748,1.828-5.07,3.172-7.444c1.059-1.873,2.614-4.627,3.667-6.504
				C293.389,370.512,292.223,376.473,288.92,381.402"/>
			<path d="M348.996,328.504c-3.634,1.837-5.908,5.288-9.973,6.092c-1.269,0.25-2.487,0.02-3.065-1.199
				c-1.271-2.678-0.57-10.147-0.319-12.295c0.228-1.932-1.237-3.556-2.673-3.562c-4.325-0.023-9.122,7.664-9.988,10.355
				c-0.167-0.986-0.499-1.667-0.816-2.661c-0.382-1.195-2.023-0.719-2.19,0.312l-0.023-0.004c-0.086,0.664-1.043,8.04-1.526,9.712
				c-0.804,2.784-2.283,5.694-4.076,7.933c-1.222,1.53-2.74,2.088-3.744,1.812c-1.01-0.279-2.152-1.913-2.793-3.652
				c-0.642-1.739-0.295-8.301-0.227-9.203c0.188-2.45-3.139-3.657-4.008-1.159c-0.33,0.945-0.898,3.191-1.097,5.397
				c-0.158,1.778,0.196,4.012,0.11,5.499c-0.067,1.171-0.556,1.727-0.77,2.285c-0.531,1.397-2.105,5.064-2.546,5.308
				c-0.44,0.241-1.508,1.58-1.862,2.098c-1.052,1.533-0.112-1.115-0.563,0.383c-0.614,2.042-1.877,1.36-1.622,3.88
				c0.215,2.119,3.634,0.341,5.015-0.804c2.524-2.091,3.946-3.966,4.853-6.873c1.937,2.468,4.511,2.87,7.864,1.496
				c2.021-0.829,3.256-2.929,4.709-4.967c0.702,2.084,4.828,2.013,5.521-0.527c1.085-3.962,0.626-6.652,2.032-11.753
				c1.405-5.099,3.864-8.14,5.111-9.671c1.147-0.888-1.154,6.478-0.307,10.902c0.85,4.425,4.914,6.318,7.652,5.801
				c2.739-0.518,8.129-3.709,9.361-5.238c1.232-1.531,2.439-3.249,3.281-4.324C351.059,328.926,350.117,327.936,348.996,328.504"/>
			<path d="M311.031,316.298c-0.94-1.551-2.421-2.762-4.218-2.485c-1.049,0.16-1.64,0.698-2.24,1.517
				c-0.043,0.008-1.111-0.583-1.929,0.479c-0.918,1.192-1.612,4.36-1.323,5.71c0.259,1.194,0.733,3.346,3.071,3.7
				c2.339,0.354,4.693-1.059,5.602-2.671C311.158,320.48,312.36,318.49,311.031,316.298 M305.496,321.229
				c-0.617-0.216-0.545-3.447,0.076-4.165c0.622-0.719,1.597-0.208,2.033,0.569C308.041,318.405,306.11,321.445,305.496,321.229"/>
			<path d="M340.14,291.919c-0.981-1.527-3.799-0.36-3.342,1.421c0.504,1.966,0.414,3.544,0.208,5.568
				c-0.111,1.085-0.368,5.101-0.104,6.063c0.256,0.93,1.973,1.537,2.637,0.49c0.622-0.982,0.862-1.854,1.736-4.935
				C342.148,297.445,341.361,293.821,340.14,291.919"/>
			<path d="M253.707,373.781c2.021-0.829,3.872-1.251,5.325-3.288c0.704,2.084,4.828,2.012,5.522-0.526
				c1.084-3.965,0.626-6.655,2.031-11.755c1.407-5.099,3.865-8.139,5.111-9.67c1.149-0.888-1.153,6.478-0.306,10.902
				c0.85,4.425,4.914,6.318,7.652,5.801s8.128-3.708,9.359-5.239c1.233-1.529,6.87-7.487,7.711-8.565
				c0.741-0.948-0.619-1.881-1.741-1.312c-3.633,1.837-9.919,9.47-13.981,10.273c-1.271,0.25-2.488,0.02-3.064-1.197
				c-1.271-2.68-0.571-10.149-0.321-12.295c0.228-1.933-1.237-3.557-2.672-3.563c-4.326-0.021-9.121,7.665-9.988,10.357
				c-0.167-0.986-0.499-1.667-0.817-2.661c-0.382-1.196-2.023-0.721-2.191,0.313l-0.021-0.007c-0.087,0.666-1.045,8.041-1.527,9.713
				c-0.803,2.782-2.284,5.693-4.076,7.934c-1.223,1.528-2.739,2.087-3.743,1.81c-1.012-0.279-2.152-1.912-2.795-3.65
				c-0.641-1.741-0.295-8.303-0.226-9.205c0.188-2.449-3.139-3.656-4.011-1.158c-0.326,0.944-0.896,3.191-1.095,5.396"/>
		</g>
	</g>
</g>
</svg>
