<svg xmlns="http://www.w3.org/2000/svg" width="1559.321" height="207.938" fill="#efe8de"><path d="M1421.526 123.514c-2.252-2.928-12.693-.183-18.648 1.723-5.964 1.906-11.654.82-13.97-1.596-2.315-2.407-2.635-6.967-2.315-7.614.328-.646 5.052 1.404 14.17-3.154s15.394-16.067 9.064-23.555-15-6.82-23.407-1.98c-8.407 4.842-14.892 17.782-15.648 29.335-.766 11.545 5.745 24.384 15.922 26.664 10.186 2.28 18.603 1.075 27.037-6.273 8.435-7.36 10.057-10.624 7.796-13.55zm-29.372-25.178c2.6-2.88 6.84-5.298 9.164-2.945 2.316 2.362 1.076 4.9-3.63 8.992-4.715 4.104-9.967 3.902-10.195 3.273-.227-.62 2.08-6.428 4.66-9.32zm46.466 29.248c3.468-.246 8.3 4.088 8.175 7.556s-4.218 6.942-7.74 7.065-7.742-2.63-7.742-7.14 3.84-7.232 7.307-7.48zm93.1 7.134c0 3.5 1.754 7.94 6.434 7.7s7.773-3.425 8.192-8.524-2.423-6.518-6.604-6.518-8.022 3.844-8.022 7.353zm-55.008-86.438c3.723-.228 7.22.456 9.65 3.495s6.44 6.787 7.6 17.782c2.128 20.214-2.736 52.28-4.56 57.296s-3.8 11.646-.15 14.447 8.055 2.65 13.906-1.377 29.833-23.767 45.638-61.762c7.35-17.67 10.515-31 10.517-40.52.003-10.95-2.887-16.5-5.167-18.997s-7.732-.76-7.674 2.583.607 12.7.228 19.9-8.358 31.877-20.138 50.153-17.82 24.127-19.187 23.976 7.675-24.43 2.508-49.355-20.485-31.176-29.377-29.048S1473 48.5 1476.723 48.27zM866.047 89.948l-8.03 2.72.9-22.1c1-30.37-2.9-48-4.03-58.4-1.12-10.37-13.72-7.74-14.72-.74-.92 6.45-23.9 43.32-32.9 58.97-9.02-1.24-16.67 1.5-19.94 5.66-2.12 2.7-5.03 9.57-4 15 .6 3.14 2.1 6.24 4.5 9.26-4.3 5.74-8.9 11.4-13.28 15.87-11 11.24-20.4 13.42-23.26 13.24-6.12-.37-2.97-10.1-8.03-10.36s-5.34 6.5-5.47 10.5c-.12 4 2.76 11.37 9.63 13.25s15.25-1.25 19.25-3.75c2.97-1.86 16.74-11 31.4-29.67 3 2.02 6.46 3.97 10.34 5.84 6.96 3.36 16.57 3.6 25.6 2.14 1.36 2.26 3 5.22 4.3 8.13l-.52 10.43c-.1 3.7 2.1 8.1 5.05 9.74 4.9 2.75 11.77.28 12.4-8.24l1.93-28.65c7.56-4.94 11.16-10.23 12.13-11.47 2.378-3-.24-7.12-3.24-7.38zm-41.5 8.5c-1.08 2.25-10.04-.16-16.4-3.36a165.03 165.03 0 0 0 4.17-6.97c5.8 3.6 13.07 8.58 12.23 10.33zm15.87-16.74l-.27 9.5c-2.8-2.78-7.05-6.68-13.48-11.96-2.2-1.8-4.42-3.3-6.65-4.53l4.592-8.15 15.8-28.37c.63-.001.5 18.74-.001 43.5zm83.916 10.604c-.833 4.5-3.5 7.167-6.416 4.917s-13.834-2.917-15.667 14.916c-.916 8.916 3.5 13.917 10.083 10.5s10.084-11.5 11.334-17c2.5-11 1.75-9.25 3.583-17.25s13.95-6.92 14.283.08-1.2 19.336-.033 24.503 3 7.833 5.584 9.083 10.332-1.5 10.166 4.75-7.837 11.948-16.002 13.266-11.9-8.766-12.998-8.766-8.333 12.918-22.833 11.75-26.167-13.25-21-33.417 16.75-25.832 24.916-26.833 15.833 5 15 9.5zm87.582 1.822c3.5 1.25 8.625-2.125 5.5-8.25s-10-11.375-20-8.5-26.667 22.5-26.167 41.25 12.917 26 27.667 26.167 26.876-14.792 29.5-20.667-3.25-7-6.376-5-16.708 7.083-24.457 6.583-10.293-9.333-4.793-20.583 9.25-12.75 11.875-12.75 7.25 1.75 7.25 1.75zm51.72-32c1.333 12.167-.8 27.656-.134 29s11.665-13.25 23-11.25 14.915 12.75 15.333 18.584.25 15.416-.5 20.666-.667 10.417.166 10.75 7-.416 5.334 6.834-6.834 8.835-10.5 8.917c-1.83.04-6.397-1.566-9.082-5.917-2.694-4.368-3.5-11.5-3-17.084 1-11.166 2.083-15.083 2.083-20.583s-1.066-9.126-6.083-6.083-10.752 8.3-14.085 15.554c-6.666 14.53-6.5 21.944-7.833 26.695s-13.25 7.2-14.167-.833 3.125-33.485 4.46-50.45-.293-43.007.54-53.05 8.935-8.674 10.114-2.047 3.022 18.14 4.355 30.308zm119.195 60.2c-.1-.85-1.52-1.88-3.83-2.08-3.45-.3-7.88.73-9.75 1.33-3.12 1-9.83 5.84-18.42 4.42-8.58-1.42-13.08-9.37-12.7-10.25s12.55.67 18.13-1.75 14-8.46 13.75-20.08c-.25-11.63-9.33-18.37-19.88-18.48-10.54-.1-17.33 9.43-19.45 13.56-2.13 4.13-9.1 16.08-8.7 27.33.42 11.25 6.35 17.92 9.85 20.84 3.5 2.9 10.6 8.27 22.57 8.73 11.96.45 16.56-4.15 22.35-9.73 5.8-5.6 6.33-11.7 6.08-13.84zm-37.9-28.4c3.12-5.5 8.58-4.67 11.08-2.92s4.25 7.75-1.62 11c-5.88 3.25-13.63 3-14 1.87 0 .001 1.4-4.45 4.54-9.95zm56.237-10.916c-.417 3.333-.417 22-.417 31.666s-1.503 18.834-1.42 24.667 12.004 7.75 13.17-.167 6.5-35.917 17-42.5 12.584-4.832 13.5-4.166.417 28.416 1.083 36.75 7.583 15.1 14.25 14.753 16.083-5.92 18.417-14.92-4.75-9.5-8.583-9.083-7.668 4.666-8.834 3.666-.75-25.333-1.25-32.833S1253 79.35 1248 77.684s-15-.832-23.667 5.334-8.36 8.394-10.028 8.06-.805-10.562-5.472-12.062-7.25.668-7.666 4zM85.917 25.66c4.333 0 3.833-5.834 4-10.167s-4.167-11.5-12-14S59.584-.84 48.417 5.66s-16 14.833-19.833 23-1.853 21.92 11 25.333 39.7 6.05 48.2 30.218-3.7 36.78-14.877 42.115-31.167 11.167-46.167 1-9-28.667-7.167-33.5 11.833-13.667 9.167-16-14.333 4.668-21.667 14.668-13.667 34.166 6.333 47.666 65.005 13.53 84.836-8.65 16.165-45.85 1.33-68.35-53.167-26.666-53.5-29.333 6.833-22.333 24.667-23c13.34-.497 10.844 14.833 15.178 14.833zm55.54 52.793c2.884-.096 4.417 8.5 3.542 11.125s-9.417 39.792 1.25 40 13.458-29.876 14.917-32.084 8.667-4.042 10.542 1.083.375 15.75 2.125 18 8.196 10.225 10.154 10.476 6.846-9.476 8.47-12.85 1.75-13.375 0-15.625-6.458-8-5.875-9.833 3.792-5.8 5.167-5.916 8.333.708 10.583.583 9.042-1.458 10.167-1.333 4.542.208 3.667 2.333-4.208 4.666-7.083 5.416-5.375 2-5.375 2 5 8.5 3.25 19.75-10.292 33.083-23.875 31.75-17.375-12.875-19.5-13-8.458 13.25-19.083 12.5-16.042-13.75-14.667-30.376 7.873-33.875 11.623-34zm117.675-17.875c5.498.157 7.688-4.563 8.188-9.063s-4.188-8.188-8.063-7.938-6.875 4.363-7.125 8.307 2.625 8.57 7 8.694zm-4.793 19.918c6.292.2 7.917 3.457 6.167 10.207s-2.88 27.167-2.25 29.793c.33 1.377 1.743 4.73 5.417 5.25 3.332.473 8.87-1.812 10.712-2 3.875-.374 6.288 5.28 2.788 8.905s-10.542 10.927-21.5 10.167-13.292-11.126-14.292-11.126-5.583 5.833-10.208 5.7-7.542-4.96-6.542-7.2 6.875-5.67 8.75-9 9.75-18.125 10.375-20.75 4.292-20.166 10.583-19.957zm58.614-1.81c6.042-.25 9.416 5.293 9.8 6.668s.125 4 1.375 4 10.625-8.75 21-8.5 11.458 4.917 13.75 9.334-.375 37.8.375 37.8c.365 0 2.28-1.9 5.042-2.874 2.907-1.015 6.703-1.063 8.583-.25 3.667 1.584 1.333 8.666-2.375 14.25-1.944 2.927-6.344 5.414-10.792 5.584-4.038.153-8.127-1.794-10.208-3.46-1.404-1.123-5.843-7.685-4.875-18.208s2.214-29.242 1.875-29.667c-.5-.625-8.542-1.667-16.042 11.417s-7.042 24.542-8.667 29.417-4.292 7.54-8.667 7.166-6.833-3.083-6.667-7.25 1.542-12.75 2.042-16.126.875-20.25 0-20.25-4.833 3.167-7.708 11.126-12 2.75-11.667-3.917 2.958-12.792 9.333-18.917 8.46-7.086 14.502-7.335zm145.236 47.42c-3-4.75-17.4 4.66-17.4 4.66s-.92-3.9-.42-9.08 4.607-32.697 4.42-38.88-12.5-8.12-15.42 1.13c-1.4 4.9-1.08 8.42-2.25 17.25-.33 8.42-1.72 9.24-2.5 11.25-2.66 6.92-8.06 9.34-10.83 9.17-6.58-.42-4.5-12.17-2.83-19 1.66-6.84 5.75-11 8.16-11.17 2.42-.17 2.17 2.25 4.34 2.17 2.16-.1 3.4-6.42 2.66-8.75-.75-2.34-3.95-6.1-10.33-5.67s-14.5 7.13-19.62 18.5c-5.13 11.37-6.55 24.75-.38 34.25s22.75 8.12 22.75 8.12-5.95 3.13-12.12 6.7-14.48 7.17-17.88 9.67c-8.12 5.97-14.08 16.92-13.83 27.58.25 10.67 7.4 23.75 26.58 23.92s27.15-14 32.75-23.75 6.75-40.75 6.75-40.75 20.4-12.58 17.4-17.33zm-37.3 46.74c-.75 5.66-5.4 15.5-9.4 17.1s-8 1.25-11.5.67c-3.5-.6-9.17-10.25-3.34-16 5.84-5.75 25.1-20.33 26.17-20s-1.17 12.57-1.92 18.24zm75.443-124.028c4.667 0 8 1.834 7.667 8.75s-5.666 10.253-9.833 10.418-8.583-4.927-8.083-9.582 5.583-9.586 10.25-9.586zm-28 86c-2.272 3.497 3.083 8 6.75 6.25s7.693-8.583 8.417-8.583 2.667 4.25 6.417 7.916 17.606 2.442 22.75-1.333c9.083-6.667 10.333-18.332 6.167-19.416s-17.667 6.082-18.5 5.332-.598-7.676-.167-15.75c.494-9.254 1.667-16.666 0-21.416s-12.27-5.5-14.22 1l-7.28 23.7c-2.334 6.808-8.167 18.975-10.334 22.3zm72.633-30.758c3.417-.167 11.167-14.932 14.5-13.432s0 15.647-.667 18.623-8.426 24.347-5.093 28.68 7.76 4.756 11.927 1.88 3.348-7.92 9.764-23.254 17.07-24.83 19.902-22.33c1.334 1.178-1.048 5.842-2.75 12.916-1.912 7.95-3.215 18.566-2.333 23.417 1.667 9.167 9.25 14.25 17.667 13.916 1.703-.067 8.67-1.768 11.333-6.666 2.212-4.068 3.818-10.182 3.583-13.75-.14-2.14-1.687-2.972-2.083-3-3.5-.25-10.25 4.667-11.75 4s3.583-24.5 3.167-31.333S603.8 78.643 592.55 78.06s-21.25 10-22.417 10.167-.58-11.264-9.663-11.34-20.17 7.6-23.17 17.1.25 10.25 3.666 10.083zm86.284-92.142c1.542-2.2 8.833-5 12.5 3.417s3.75 17.417 1.083 22.417-7.223 7.88-10.807 4.046-4.317-27.7-2.776-29.88z"/></svg>