<svg xmlns="http://www.w3.org/2000/svg" width="589.916" height="96.688"><g fill="#EFE8DE"><path d="M51.239 3.983C46.96-.316 39.178-.881 33.698 1.079 24.713 4.291 8.546 18.701 22.65 26.896c6.339 3.683 15.823 5.327 20.118 12.094 3.996 6.296 2.173 12.315-5 15.118-5.712 2.232-13.702 2.558-20.002.582S1.55 44.586 7.532 37.71c2.435-2.798-.742-3.815-4.303-.93C1.831 37.914-1.2 43.378.508 48.753s7.917 10.458 16.56 13.495c10.487 3.684 24.772 3.646 31.748-6.164 3.774-5.308 3.916-14.276 1.628-19.886C47.61 29.252 39.622 24.964 32.9 22.275c-3.131-1.252-6.865-.956-6.067-5.265.682-3.681 5.562-7.019 8.454-8.635 3.879-2.167 7.317-2.386 11.304-.395 3.161 1.578 1.357 5.77 4.084 7.571.14.093.327.076.469 0 4.074-2.192 2.874-8.777.095-11.568zM123.142 56.523c-.656-.209-6.12 4.763-10.077.822-1.39-1.384-1.811-4.129-.265-7.682 1.449-3.333 1.63-6.019 1.708-6.119 2.479-3.191-.354-7.249-3.077-4.037-2.379 3.901-5.904 5.65-9.357 6.924-.783.29-3.947.724-5.799.739.861-2.231 1.391-4.549.816-6.324C94.05 31.43 83.7 43.99 88.817 50.963c-1.077 2.703-2.224 5.122-5.582 4.888-2.349-.163-3.313-3.272-2.819-6.462s2.408-6.24 2.509-8.772c.117-2.925-3.835-3.714-5.274-1.428-1.126 1.789-2.118 3.913-2.828 6.121-1.02 1.54-1.27 3.267-2.984 5.076-3.033 3.197-7.832 6.228-9.465 5.931-2.558-.465.168-6.454.511-7.908.739-3.136 2.666-6.87 4.008-8.668s-1.209-4.531-3.659-2.845C58.17 40.38 48.905 59.717 59.24 62.298c5.453 1.362 9.964-1.526 14.575-5.865 1.267 2.821 4.766 6.088 9.652 5.931 5.228-.168 7.609-4.002 9.656-8.32 3.394.93 7.826-.567 11.608-2.065-.322 2.197-.106 4.441.936 6.665 1.082 2.31 3.854 4.413 9.496 4.312 5.906-.105 8.945-4.025 8.938-4.029.441-.833.166-2.045-.959-2.404zM127.332 19.655c-1.663-1.044-4.361-1.599-5.531-.625-1.122.936-1.203 2.35-1.313 2.427-.224.157-3.789-.321-5.438 2.438-1.648 2.758-1.458 3.844-1.053 5.725.831 3.855 6.07 3.542 9.111 2.269 2.975-1.245 5.226-3.397 6.433-6.434.932-2.344-.547-4.756-2.209-5.8zm-4.26 6.928c-1.13.777-3.291 1.693-3.536.877-.244-.815.205-2.459 1.366-3.541 1.16-1.082 2.228-1.847 3.151-.935.923.912.15 2.822-.981 3.599zM181.313 55.958c-2.153 1.187-2.032.493-3.762 1.382.519-1.323.552-2.748 1.075-4.069.511-1.289 1.894-7.488 2.227-9.059.708-3.34.415-4.193-1.689-6.679-1.033-1.221-2.992-1.842-4.297-1.827-6.029-.133-11.095 6.396-12.764 8.373s-3.919 8.487-1.503 12.097c2.142 3.2 6.559 2.832 9.737 1.394-.274.634-.513 2.966-2.149 4.683-1.81 1.898-5.063 3.196-6.063 3.961-4.928 3.772-10.334 7.134-14.878 11.369-3.11 2.898-6.354 6.118-6.939 10.534-.563 4.257 3.115 8.605 7.529 8.569 10.13-.082 20.041-16.547 22.421-21.153s4.178-7.987 5.499-11.406c3.381-2.46 6.184-5.645 7.168-6.941s.5-2.392-1.612-1.228zm-13.894-4.606c.434-2.418 1.681-4.778 3.35-6.839a21.872 21.872 0 015.401-4.766c.061.285-2.149 5.387-3.531 7.69s-5.18 4.21-5.22 3.915zm-16.582 37.08c-4.892 3.195-2.866-1.512-1.397-3.895 1.821-2.955 4.58-4.933 7.284-7.005a3028.12 3028.12 0 007.395-5.682c-2.824 6.251-7.078 12.531-13.282 16.582z"/><path d="M245.737 57.003c-5.073.335-9.375 3.188-14.438 2.125-1.582-.332-2.869-1.193-2.938-2.875-.151-3.7 4.305-11.943 5.643-14.286 1.206-2.11.315-4.692-1.33-5.402-4.961-2.14-14.23 4.35-16.541 7.02.289-1.214.24-2.16.361-3.457.146-1.561-1.975-1.816-2.67-.712l-.023-.018c-.425.722-5.13 8.731-6.502 10.417-2.283 2.805-5.408 5.426-8.563 7.125-2.152 1.159-4.17 1.059-5.188.25-1.025-.815-1.539-3.25-1.426-5.563s3.719-9.685 4.238-10.688c1.413-2.725-1.819-5.738-4.041-3.291-.84.925-2.592 3.229-3.896 5.666-1.053 1.967-1.737 4.707-2.563 6.375-.649 1.313-1.482 1.711-2 2.25-1.295 1.347-4.896 4.792-5.521 4.854s-2.506 1.079-3.166 1.5c-1.958 1.25.416-1.335-.834.167-1.704 2.048-2.822.646-3.761 3.667-.789 2.54 4.011 2.167 6.157 1.527 3.921-1.168 6.472-2.63 8.937-5.527 1.019 3.782 3.779 5.504 8.306 5.563 2.729.035 5.173-1.775 7.84-3.405-.212 2.739 4.564 4.672 6.604 2.093 3.182-4.024 3.971-7.341 8.079-12.514s8.421-7.466 10.602-8.617c1.753-.458-4.493 6.881-5.681 12.381s2.559 9.663 5.959 10.407 11.155-.289 13.319-1.445 4.392-2.54 5.884-3.366c1.318-.729.721-2.325-.847-2.221zM208.073 24.417c-.324-2.242-1.434-4.357-3.634-4.919-1.282-.327-2.227.002-3.315.647-.054-.011-.993-1.211-2.449-.392-1.639.922-3.987 4.224-4.313 5.916-.287 1.5-.794 4.203 1.721 5.754s5.912 1.077 7.744-.332c2.347-1.804 4.703-3.505 4.246-6.674zm-8.773 2.961c-.602-.55 1.06-4.228 2.125-4.75s1.936.543 2.058 1.647-3.582 3.653-4.183 3.103zM253.442 10.628c-.381-2.236-4.189-2.273-4.535 0-.382 2.506-1.257 4.275-2.482 6.5-.657 1.192-2.917 5.682-3.083 6.917-.16 1.194 1.517 2.73 2.791 1.851 1.194-.825 1.897-1.709 4.407-4.822s3.377-7.664 2.902-10.446zM354.154 34.169c-1.208-.063-10.898-.022-12.309-.042 1.341-7.563 4.518-16.573 3.579-24.249-.337-2.76-3.402-2.326-4.847.103-5.138 8.636-17.763 23.639-18.356 24.343-2.163-.098-4.341-.449-6.593-1.327-3.533-1.376-5.049 3.787-2.402 5.697a12.9 12.9 0 003.345 1.732c-4.204 4.103-8.825 7.709-14.015 10.719-4.435 2.572-9.175 3.898-14.239 4.461-5.179.575-7.235-2.023-6.805-6.949.325-3.719 1.572-7.342 3.91-10.262.822-1.027 1.756-1.948 2.731-2.827 1.929-1.736.957.696 1.149 2.184.131 1.011 1.5 1.649 2.089.566 1.612-2.965 3.633-7.502-.537-9.481-3.927-1.863-7.935 2.013-10.341 4.65-6.236 6.835-12.15 21.734-1.702 27.291 13.112 6.974 28.626-4.437 36.362-12.401 2.091-2.153 3.871-4.918 5.856-7.107 1.739.105 3.518.004 5.3-.154.069.092 6.926-.336 7.676-.317-.748 4.537-7.129 19.017-7.415 19.746-1.355 3.454 5.233 4.295 6.75.917.77-1.715 3.956-10.046 4.834-12.708 1.034-3.135 1.929-5.934 2.627-9.123 1.734-.296 3.481-.61 5.335-.845 1.392-.177 7.4-2.525 7.663-2.74s1.581-1.813.355-1.877zm-19.188.625c-.027-.001-5.229-.017-7.875.167.188-.223-.097-.407.292-.917 2.361-3.097 8.47-10.891 10.412-13.354-.013.057-2.75 13.586-2.829 14.104z"/><path d="M449.619 74.026c-5.808 1.405-12.395 3.503-16.93.946s-7.536-6.753-7.54-11.843c-.005-8.38 7.169-17.405 10.572-24.742.959-2.067-1.097-5.35-3.757-4.348-5.836 2.2-10.426 4.91-15.294 8.265.116-.271 1.93-3.718 4.226-8.073 2.772-5.26 6.248-11.845 8.285-15.764 1.409-2.711-1.424-4.73-3.174-2.354-2.829 3.842-7.45 9.726-10.947 15.778-1.343 2.324-2.51 4.882-4.904 9.015s-9.331 9.989-12.592 12.023c-6.708 4.186-13.39 6.067-15.077 3.757s1.504-8.158 3.313-10.123c1.414-1.536 3.828-3.419 5.375-3.266 5.21.517 4.64-6.79-1.336-5.838-3.856.614-10.7 6.284-13.539 11.541s-.909 8.134-1.808 8.544c-1.96.896-6.224-.007-6.923-.375-1.02-.537-2.04-1.61-1.396-2.952s3.243-8.664 3.649-9.606c1.28-2.973-3.048-4.708-4.927-1.93-.532.788-1.32 1.957-1.831 2.834-3.485 4.975-13.051 12.903-15.064 10.631s6.557-10.557 8.623-11.312 2.848.931 4.985 1.301c.453.079.962-.114 1.076-.611.921-3.998-2.255-6.496-7.084-6.12s-11.797 6.659-13.738 10.895c-.278.607-4.112 8.875.956 12.18 5.218 3.402 11.642-.381 17.111-5.208.619 2.591 3.129 4.353 5.329 5.104s8.068 1.217 10.786-1.073c6.386 7.084 14.854 1.974 20.179-.858 2.649-1.41 9.099-7.99 9.06-7.875-.758 2.232-3.547 7.977-4.609 10.43s3.898 3.51 6 .5c1.156-1.656 1.702-2.784 2.242-3.904 4.287-8.896 11.081-13.698 16.019-16.378-4.969 7.746-10.368 17.701-6.979 26.351 4.813 12.282 20.554 17.495 32.146 6.762 1.187-1.095.98-2.658-.483-2.304z"/><path d="M504.947 58.505c-1.842-.227-2.388 1.539-6.88.944s-7.858-2-8.892-5.26.566-7.872 2.937-11.5c1.903-2.916 3.445-4.736.75-6.25-2.39-1.342-4.844-1.424-8.734-.243s-9.973 5.672-10.254 5.82c.12-.357.367-1.167.478-1.528.951-3.094-2.373-2.907-3.832-.462s-1.595 3.068-3.464 6.479c-2.376 1.91-14.664 8.626-16.486 9.375-2.496 1.026-9.05 3.501-10.701 1.982-1.042-.958-.14-2.634.396-4.426 2.715.16 6.681-2.097 7.333-2.841.789-.88 7.729-7.267 5.896-13.206-1.165-3.774-5.951-3.06-8.406-2.005-4.44 1.909-8.821 7.48-10.975 11.596-1.96 3.747-3.426 9.579-1.095 13.514 4.237 7.155 13.544 3.468 19.304.611 4.149-2.058 11.733-8.945 12.46-9.562-.103.423-3.131 7.126-3.794 8.458-2.482 4.986 5.83 5.968 6.813 1.513 1.205-2.336 4.221-11.034 8.234-14.712s11.127-7.169 11.725-6.572c-6.375 5.583-7.49 13.495-6.536 16.179s3.639 6.771 12.554 8.042 11.446-2.197 11.765-2.502l.074-.072c1.322-1.267 1.108-3.705-.67-3.372zm-56.816-17.912c1.942-.99-2.016 3.654-2.252 3.926-1.032.858-2.479 2.294-3.699 2.708.716-1.124 1.357-2.207 2.08-3.196 1-1.37 2.153-2.562 3.871-3.438zM543.014 59.071c-2.181.768-5.546 1.642-7.251 1.555-.744-.039-1.791-.031-2.141-.525-.45-.635-.088-1.824-.018-2.105.831-.045 2.22-.454 3.685-1.309 1.464-.855 3.807-4.255 3.676-6.155-.125-1.812-1.892-2.571-3.294-2.394-1.998.253-3.922 1.751-5.057 3.349-2.088 2.936-5.996 10.375-.792 12.438 2.36.936 5.064.118 7.59-.896 1.78-.715 3.447-1.525 4.634-2.753.729-.755-.025-1.559-1.032-1.205zm-6.642-6.595c.678-.721 1.68-1.572 1.946-1.464.265.108-.027 1.26-1.149 2.586-1.121 1.326-2.392 1.763-2.653 1.566-.262-.197 1.179-1.967 1.856-2.688zM550.17 61.062c-.343-.273.02-.567-.986-.567-1.021 0-1.664.926-1.42 1.845s.919 1.412 1.573 1.499c.655.087 1.427-.957 1.485-1.42.132-1.028-.308-1.085-.652-1.357zM589.107 36.477c-1.711-.216-10.931 1.265-16.929 5.348-5.996 4.083-9.852 11.486-10.082 11.912.386-4.175.212-8.051-.341-12.232-.271-2.057-2.516-7.013-6.292-5.514-3.776 1.498-4.084 4.09-4.07 5 .005.406.639.647.822.223.247-.567.654-2.839 3.599-3.072s3.604 15.471 1.581 24.254c-.458 1.986 2.812 2.977 3.793 1.613 1.699-2.362 2.496-5.364 3.585-8.046 1.185-2.914 2.699-5.687 6.955-10.549 4.254-4.861 16.063-7.471 17.468-7.858.815-.225 1.129-.925-.089-1.079zM569.151 60.704c-.241-.27-.601-.515-.964-.571-.374-.057-.524-.061-.903.012-.223.043-.393.169-.582.27-.621.327-.821 1.084-.605 1.703a1.78 1.78 0 00.193.889c.464.896 1.634 1.173 2.493.718 1.115-.589 1.137-2.16.368-3.021zM114.092 62.461c2.729.035 5.062.454 7.729-1.176-.212 2.739 4.564 4.672 6.604 2.093 3.182-4.024 3.971-7.341 8.079-12.514s8.421-7.466 10.602-8.617c1.753-.458-4.493 6.881-5.681 12.381s2.559 9.663 5.959 10.407 11.155-.289 13.319-1.445 11.555-5.249 13.047-6.075c1.315-.729.208-2.463-1.359-2.359-5.073.335-16.028 6.035-21.091 4.973-1.582-.332-2.869-1.193-2.938-2.875-.151-3.7 4.305-11.943 5.643-14.286 1.206-2.11.315-4.692-1.33-5.402-4.961-2.14-14.23 4.35-16.541 7.02.289-1.214.24-2.16.361-3.457.146-1.561-1.975-1.816-2.67-.712l-.023-.018c-.425.722-5.13 8.731-6.502 10.417-2.283 2.805-5.408 5.426-8.563 7.125-2.152 1.159-4.17 1.059-5.188.25-1.025-.815-1.539-3.25-1.426-5.563s3.719-9.685 4.238-10.688c1.413-2.725-1.819-5.738-4.041-3.291-.84.925-2.592 3.229-3.896 5.666"/></g></svg>